<svg width="3848" height="2867" viewBox="0 0 3848 2867" fill="none" xmlns="http://www.w3.org/2000/svg">
<path d="M3847.57 2519.39H0V2521.32H3847.57V2519.39Z" fill="#EBEBEB"/>
<path d="M3462.05 2643.21H3207.18V2645.13H3462.05V2643.21Z" fill="#EBEBEB"/>
<path d="M2548.79 2664.14H2481.92V2666.06H2548.79V2664.14Z" fill="#EBEBEB"/>
<path d="M3199.49 2571.8H3051.82V2573.72H3199.49V2571.8Z" fill="#EBEBEB"/>
<path d="M736.041 2584.72H403.688V2586.65H736.041V2584.72Z" fill="#EBEBEB"/>
<path d="M853.315 2584.72H804.605V2586.65H853.315V2584.72Z" fill="#EBEBEB"/>
<path d="M1732.56 2617.2H1011.68V2619.12H1732.56V2617.2Z" fill="#EBEBEB"/>
<path d="M1823.75 2176.19H337.894C326.254 2176.17 315.098 2171.53 306.874 2163.29C298.65 2155.05 294.032 2143.89 294.032 2132.25V43.5545C294.133 31.9812 298.797 20.9153 307.009 12.7602C315.222 4.60523 326.32 0.0198257 337.894 0H1823.75C1835.4 0 1846.58 4.62931 1854.82 12.8695C1863.06 21.1097 1867.69 32.2859 1867.69 43.9393V2132.25C1867.69 2143.9 1863.06 2155.08 1854.82 2163.32C1846.58 2171.56 1835.4 2176.19 1823.75 2176.19V2176.19ZM337.894 1.53904C326.764 1.55942 316.097 5.99502 308.234 13.8723C300.372 21.7495 295.956 32.4247 295.956 43.5545V2132.25C295.956 2143.38 300.372 2154.05 308.234 2161.93C316.097 2169.81 326.764 2174.24 337.894 2174.26H1823.75C1834.89 2174.24 1845.56 2169.81 1853.44 2161.94C1861.31 2154.06 1865.75 2143.39 1865.77 2132.25V43.5545C1865.75 32.4176 1861.31 21.7426 1853.44 13.8676C1845.56 5.99252 1834.89 1.55938 1823.75 1.53904H337.894Z" fill="#EBEBEB"/>
<path d="M3488.29 2176.19H2002.35C1990.71 2176.17 1979.54 2171.53 1971.31 2163.3C1963.07 2155.06 1958.44 2143.9 1958.42 2132.25V43.5545C1958.54 31.9742 1963.22 20.9083 1971.44 12.7554C1979.67 4.60254 1990.77 0.0196095 2002.35 0H3488.29C3499.85 0.0400494 3510.93 4.6344 3519.12 12.7872C3527.32 20.9401 3531.97 31.9945 3532.07 43.5545V2132.25C3532.07 2143.88 3527.47 2155.03 3519.26 2163.26C3511.05 2171.5 3499.91 2176.15 3488.29 2176.19V2176.19ZM2002.35 1.53904C1991.22 1.55938 1980.54 5.99252 1972.67 13.8676C1964.79 21.7426 1960.36 32.4176 1960.34 43.5545V2132.25C1960.36 2143.39 1964.79 2154.06 1972.67 2161.94C1980.54 2169.81 1991.22 2174.24 2002.35 2174.26H3488.29C3499.43 2174.24 3510.1 2169.81 3517.98 2161.94C3525.85 2154.06 3530.28 2143.39 3530.3 2132.25V43.5545C3530.28 32.4176 3525.85 21.7426 3517.98 13.8676C3510.1 5.99252 3499.43 1.55938 3488.29 1.53904H2002.35Z" fill="#EBEBEB"/>
<path d="M468.327 1091.86H1032.54L1032.54 158.982L468.327 158.982L468.327 1091.86Z" fill="#F5F5F5"/>
<path d="M468.25 158.905H457.092V1091.79H468.25V158.905Z" fill="#E0E0E0"/>
<path d="M525.579 1050.77H975.36L975.36 199.997H525.579L525.579 1050.77Z" fill="#FAFAFA"/>
<path d="M1165.66 1419.29H1729.87L1729.87 486.411L1165.66 486.411V1419.29Z" fill="#F5F5F5"/>
<path d="M1165.66 486.487H1154.5V1419.37H1165.66V486.487Z" fill="#E0E0E0"/>
<path d="M1222.91 1378.28H1672.69V527.503H1222.91V1378.28Z" fill="#FAFAFA"/>
<path d="M801.835 2278.3C815.84 2024.36 778.749 1616.52 738.658 1475.01C733.348 1456.31 727.346 1434.61 718.188 1431.76C692.025 1423.45 680.251 1464.46 683.483 1478.62C698.874 1546.8 713.264 1716.02 727.346 2010.36C734.348 2156.57 727.346 2257.22 746.122 2278.38L801.835 2278.3Z" fill="#E6E6E6"/>
<path d="M760.127 1712.32C796.91 1593.43 1268.01 1471.31 1132.19 1599.21C1098.41 1631.06 941.117 1715.02 876.555 1803.28C826.382 1871.84 775.671 1987.2 762.282 2051.14C756.433 1916.63 735.656 1791.58 760.127 1712.32Z" fill="#E6E6E6"/>
<path d="M813.762 1863.07C895.792 1682.16 1158.12 1649.69 1087.63 1745.18C1059.93 1782.66 958.354 1825.44 893.714 1913.71C843.542 1982.27 792.831 2097.54 779.518 2161.57C773.593 2026.98 779.518 1938.64 813.762 1863.07Z" fill="#E6E6E6"/>
<path d="M710.647 1847.68C613.534 1614.98 262.712 1596.44 356.054 1704.55C391.529 1745.72 515.498 1821.06 609.148 1918.17C681.944 1993.58 763.974 2118.24 791.907 2187.5C773.824 2044.76 749.815 1941.56 710.647 1847.68Z" fill="#E6E6E6"/>
<path d="M751.431 1587.28C838.386 1427.91 1101.56 1410.83 1026.38 1498.01C996.907 1532.33 901.025 1575.81 838.386 1661.46C789.676 1727.95 731.193 1814.75 718.188 1876.92C712.494 1746.26 712.879 1658 751.431 1587.28Z" fill="#E6E6E6"/>
<path d="M675.711 1590.43C607.147 1491.32 300.111 1382.36 379.833 1472.08C463.787 1566.19 523.424 1550.03 602.992 1632.22C664.553 1696.09 733.81 1801.97 757.665 1859.99C742.197 1739.1 724.806 1661.23 675.711 1590.43Z" fill="#E6E6E6"/>
<path d="M757.203 1476.31C800.758 1397.98 980.362 1340.34 933.499 1400.44C900.794 1442.15 861.549 1470.77 819.918 1527.56C787.676 1571.73 743.813 1627.22 735.272 1668.39C731.424 1581.81 731.039 1523.02 757.203 1476.31Z" fill="#E6E6E6"/>
<path d="M686.33 1500.02C642.468 1451.38 407.843 1335.95 461.709 1410.06C482.717 1439.22 572.211 1510.1 632.464 1572.73C679.328 1621.21 730.731 1660.77 748.661 1704.86C736.81 1613.21 730.27 1548.57 686.33 1500.02Z" fill="#E6E6E6"/>
<path d="M746.429 1670.69C682.329 1599.74 215.002 1508.33 335.124 1586.66C376.216 1613.44 556.898 1659.46 645.007 1750.8C713.417 1821.67 738.042 1939.25 764.282 2003.66C833.385 1890.47 810.607 1741.72 746.429 1670.69Z" fill="#E6E6E6"/>
<path d="M666.4 2267.99L672.402 2480.3C673.018 2520.62 682.406 2519.39 693.795 2519.39H844.85C856.162 2519.39 865.55 2520.62 866.243 2480.3L872.245 2267.99C872.938 2224.28 863.165 2187.42 850.853 2187.42H687.792C675.48 2187.42 665.707 2224.28 666.4 2267.99Z" fill="#F5F5F5"/>
<path d="M657.397 2226.13H881.249C882.717 2226.22 884.168 2225.78 885.34 2224.89C886.511 2224 887.326 2222.72 887.636 2221.28L892.945 2180.65C892.982 2179.82 892.839 2178.98 892.527 2178.21C892.214 2177.43 891.74 2176.74 891.135 2176.16C890.529 2175.58 889.808 2175.14 889.018 2174.87C888.229 2174.6 887.39 2174.49 886.558 2174.57H652.01C651.181 2174.51 650.347 2174.62 649.563 2174.9C648.78 2175.17 648.063 2175.61 647.461 2176.19C646.858 2176.76 646.383 2177.45 646.067 2178.22C645.75 2178.99 645.599 2179.82 645.623 2180.65L650.933 2221.28C651.259 2222.73 652.088 2224.01 653.273 2224.9C654.457 2225.78 655.919 2226.22 657.397 2226.13V2226.13Z" fill="#F5F5F5"/>
<path d="M2238.29 1327.88H2068.84V2467.99H2238.29V1327.88Z" fill="#F0F0F0"/>
<path d="M3385.87 2467.99H2101.39V2519.39H3385.87V2467.99Z" fill="#F0F0F0"/>
<path d="M2238.29 2467.99H3418.42V1327.87L2238.29 1327.87V2467.99Z" fill="#F5F5F5"/>
<path d="M2220.74 1283.01H2047.53V1327.87H2220.74V1283.01Z" fill="#F0F0F0"/>
<path d="M2220.74 1327.88L3439.73 1327.88V1283.01L2220.74 1283.01V1327.88Z" fill="#FAFAFA"/>
<path d="M3356.62 1866.15H2300.08V1422.83H3356.62V1866.15ZM2310.08 1856.45H3346.93V1432.53H2309.78L2310.08 1856.45Z" fill="#E0E0E0"/>
<path d="M3356.62 2373.03H2300.08V1935.87H3356.62V2373.03ZM2310.08 2363.33H3346.93V1945.56H2309.78L2310.08 2363.33Z" fill="#E0E0E0"/>
<path d="M3034.04 1510.02H2622.66C2617.83 1510 2613.2 1508.07 2609.79 1504.66C2606.37 1501.24 2604.44 1496.61 2604.42 1491.78V1491.78C2604.44 1486.95 2606.37 1482.32 2609.79 1478.91C2613.2 1475.49 2617.83 1473.56 2622.66 1473.54H3034.04C3038.87 1473.56 3043.5 1475.49 3046.92 1478.91C3050.33 1482.32 3052.26 1486.95 3052.28 1491.78V1491.78C3052.26 1496.61 3050.33 1501.24 3046.92 1504.66C3043.5 1508.07 3038.87 1510 3034.04 1510.02V1510.02Z" fill="#E0E0E0"/>
<path d="M3034.12 1986.58H2622.66C2612.59 1986.58 2604.42 1994.74 2604.42 2004.82C2604.42 2014.89 2612.59 2023.05 2622.66 2023.05H3034.12C3044.19 2023.05 3052.36 2014.89 3052.36 2004.82C3052.36 1994.74 3044.19 1986.58 3034.12 1986.58Z" fill="#E0E0E0"/>
<path d="M2773.41 1282.55H3262.82L3302.53 846.159H2813.12L2773.41 1282.55Z" fill="#E6E6E6"/>
<path d="M2756.79 1282.55H3246.2L3285.91 846.159H2796.49L2756.79 1282.55Z" fill="#F0F0F0"/>
<path d="M3202.26 1234.23L3233.19 894.484H2840.43L2809.5 1234.23H3202.26Z" fill="white"/>
<path d="M2660.06 963.895L2631.05 1282.55H2865.6L2894.61 963.895H2660.06Z" fill="#E6E6E6"/>
<path d="M2647.9 963.895L2618.89 1282.55H2853.44L2882.45 963.895H2647.9Z" fill="#F0F0F0"/>
<path d="M2679.99 999.138L2657.37 1247.31H2821.43L2843.97 999.138H2679.99Z" fill="white"/>
<path d="M1923.79 2866.9C2747.8 2866.9 3415.8 2827.9 3415.8 2779.8C3415.8 2731.69 2747.8 2692.69 1923.79 2692.69C1099.77 2692.69 431.774 2731.69 431.774 2779.8C431.774 2827.9 1099.77 2866.9 1923.79 2866.9Z" fill="#F5F5F5"/>
<path d="M2280.23 451.859C2273.15 433.918 2262.51 417.593 2248.96 403.865C2235.41 390.137 2219.23 379.288 2201.39 371.972C2183.54 364.655 2164.4 361.021 2145.11 361.287C2125.83 361.554 2106.79 365.715 2089.16 373.523C2023.59 402.456 1988.04 486.564 2012.74 553.743C2025.08 587.662 2049.83 615.633 2082 632.003C2095.38 638.413 2106.72 648.401 2114.78 660.859L2135.1 693.333C2141.76 703.962 2151.93 711.93 2163.84 715.864C2175.75 719.797 2188.67 719.449 2200.35 714.879L2251.6 694.641C2263.26 689.996 2272.93 681.427 2278.94 670.412C2284.95 659.397 2286.93 646.629 2284.54 634.311L2276.84 595.374C2274.37 581.588 2275.78 567.388 2280.92 554.359C2293.42 521.291 2293.18 484.754 2280.23 451.859V451.859Z" fill="#FF7900"/>
<path d="M2207.12 779.672C2203.84 779.663 2200.59 778.982 2197.58 777.672C2194.68 776.444 2192.05 774.647 2189.86 772.387C2187.67 770.127 2185.95 767.449 2184.81 764.513C2182.56 758.642 2182.71 752.122 2185.23 746.362C2187.75 740.603 2192.44 736.066 2198.27 733.732L2266.22 706.876C2272.09 704.607 2278.62 704.749 2284.38 707.272C2290.15 709.794 2294.68 714.492 2297 720.343C2298.22 723.242 2298.85 726.355 2298.85 729.5C2298.85 732.645 2298.22 735.758 2297 738.657C2294.47 744.484 2289.74 749.075 2283.84 751.431L2216.2 777.98C2213.32 779.15 2210.23 779.726 2207.12 779.672V779.672ZM2274.99 712.648C2272.96 712.637 2270.95 713.03 2269.07 713.802L2200.81 740.658C2197.81 741.815 2195.23 743.84 2193.39 746.473C2191.54 749.107 2190.53 752.23 2190.47 755.444C2190.41 758.657 2191.32 761.815 2193.06 764.513C2194.81 767.212 2197.32 769.328 2200.27 770.592C2202.24 771.43 2204.36 771.862 2206.51 771.862C2208.65 771.862 2210.77 771.43 2212.74 770.592L2280.69 743.813C2282.67 743.022 2284.47 741.846 2285.99 740.353C2287.5 738.86 2288.71 737.081 2289.54 735.117C2290.4 733.165 2290.84 731.056 2290.84 728.923C2290.84 726.79 2290.4 724.681 2289.54 722.728C2288.31 719.658 2286.19 717.03 2283.44 715.19C2280.69 713.349 2277.45 712.383 2274.15 712.417L2274.99 712.648Z" fill="#263238"/>
<path d="M2241.75 821.072C2239.69 821.05 2237.65 820.632 2235.75 819.841C2232.23 818.168 2229.49 815.226 2228.05 811.607L2226.9 808.606C2226.18 806.788 2225.82 804.844 2225.85 802.888C2225.88 800.931 2226.3 799 2227.08 797.205C2227.86 795.41 2228.98 793.787 2230.39 792.429C2231.8 791.071 2233.46 790.005 2235.29 789.291L2277.69 772.516C2281.38 771.175 2285.44 771.297 2289.05 772.857C2292.65 774.416 2295.53 777.295 2297.08 780.904L2298.23 783.905C2299.65 787.581 2299.57 791.667 2298 795.28C2296.43 798.894 2293.5 801.746 2289.85 803.22L2246.98 819.995C2245.32 820.672 2243.55 821.038 2241.75 821.072V821.072ZM2282.92 779.134C2282.02 779.159 2281.14 779.342 2280.3 779.672L2237.9 796.448C2237.02 796.788 2236.22 797.299 2235.53 797.953C2234.85 798.606 2234.3 799.388 2233.92 800.253C2233.54 801.119 2233.34 802.051 2233.32 802.996C2233.31 803.941 2233.48 804.88 2233.82 805.759L2234.98 808.76C2235.33 809.645 2235.85 810.452 2236.51 811.136C2237.17 811.82 2237.96 812.367 2238.83 812.745C2239.7 813.124 2240.64 813.327 2241.59 813.343C2242.54 813.359 2243.48 813.188 2244.37 812.839L2286.77 796.063C2287.65 795.717 2288.47 795.199 2289.15 794.538C2289.84 793.878 2290.39 793.089 2290.77 792.215C2291.13 791.35 2291.32 790.422 2291.32 789.484C2291.32 788.546 2291.13 787.617 2290.77 786.752L2289.61 783.751C2289.04 782.433 2288.11 781.302 2286.93 780.486C2285.74 779.67 2284.36 779.201 2282.92 779.134V779.134Z" fill="#263238"/>
<path d="M2115.47 588.371C2110.23 588.381 2105.08 586.96 2100.58 584.26C2096.08 581.561 2092.4 577.686 2089.94 573.052C2087.47 568.417 2086.32 563.2 2086.61 557.96C2086.89 552.721 2088.59 547.657 2091.54 543.315C2094.49 538.972 2098.56 535.515 2103.32 533.316C2108.09 531.116 2113.36 530.257 2118.58 530.831C2123.79 531.405 2128.75 533.39 2132.93 536.573C2137.1 539.756 2140.32 544.016 2142.25 548.895L2152.87 575.751L2126.02 586.294C2122.67 587.654 2119.09 588.36 2115.47 588.371ZM2115.47 538.353C2112.34 538.32 2109.24 538.981 2106.4 540.29C2103.56 541.599 2101.04 543.522 2099.03 545.922C2097.02 548.321 2095.57 551.137 2094.77 554.165C2093.98 557.194 2093.87 560.361 2094.45 563.437C2095.03 566.513 2096.29 569.422 2098.13 571.954C2099.97 574.486 2102.35 576.579 2105.1 578.081C2107.84 579.583 2110.89 580.456 2114.01 580.639C2117.14 580.822 2120.27 580.309 2123.17 579.137L2142.87 571.442L2135.17 551.819C2133.58 547.893 2130.84 544.537 2127.31 542.19C2123.79 539.843 2119.63 538.613 2115.4 538.661L2115.47 538.353Z" fill="white"/>
<path d="M2200.58 717.496L2142.95 571.365L2195.96 550.434L2253.6 696.565L2246.44 699.412L2191.58 560.438L2152.87 575.751L2207.74 714.649L2200.58 717.496Z" fill="white"/>
<path d="M2191.58 560.438L2181.04 533.581C2178.94 528.272 2178.46 522.459 2179.66 516.878C2180.87 511.297 2183.7 506.198 2187.8 502.228C2191.91 498.257 2197.09 495.593 2202.71 494.573C2208.33 493.553 2214.12 494.222 2219.36 496.495C2224.6 498.769 2229.04 502.546 2232.13 507.347C2235.22 512.148 2236.82 517.758 2236.72 523.467C2236.62 529.175 2234.83 534.726 2231.58 539.417C2228.32 544.108 2223.75 547.728 2218.43 549.818L2191.58 560.438ZM2207.82 501.801C2205.18 501.836 2202.57 502.358 2200.12 503.34C2197.53 504.358 2195.17 505.877 2193.17 507.811C2191.18 509.746 2189.58 512.056 2188.48 514.609C2187.38 517.163 2186.79 519.909 2186.76 522.689C2186.72 525.47 2187.23 528.23 2188.27 530.811L2195.96 550.434L2215.59 542.739C2220.17 540.939 2223.99 537.595 2226.37 533.284C2228.76 528.973 2229.57 523.965 2228.65 519.123C2227.74 514.281 2225.17 509.909 2221.38 506.761C2217.59 503.612 2212.82 501.885 2207.89 501.878L2207.82 501.801Z" fill="white"/>
<path d="M2311.08 927.188C2282.19 927.227 2253.33 924.885 2224.82 920.186L2226.13 912.491C2254.11 917.109 2282.42 919.426 2310.78 919.416L2311.08 927.188Z" fill="#FF7900"/>
<path d="M2470.14 1006.91L2474.22 998.599C2488.41 967.004 2491.27 931.479 2482.3 898.024C2452.36 908.755 2421.43 916.488 2389.96 921.109L2388.81 913.414C2421.06 908.589 2452.73 900.44 2483.3 889.097L2487.15 887.712L2488.3 891.56C2498.07 924.95 2496.8 960.601 2484.69 993.213C2579.26 955.583 2677.99 821.996 2677.99 662.86C2677.99 521.577 2513.24 406.611 2310.7 406.611C2108.16 406.611 1943.49 521.577 1943.49 662.86C1943.49 765.59 2030.98 858.163 2166.65 898.639L2164.41 906.334C2025.9 864.858 1936.02 769.438 1936.02 663.168C1936.02 517.652 2104.24 399.224 2310.93 399.224C2517.62 399.224 2685.91 517.652 2685.91 663.168C2685.91 830.46 2578.18 970.281 2478.92 1003.91L2470.14 1006.91Z" fill="#FF7900"/>
<path d="M2683.77 464.202L2427.42 510.003C2409.02 513.292 2396.76 530.881 2400.05 549.289L2427.33 702.005C2430.62 720.413 2448.21 732.669 2466.62 729.38L2722.96 683.58C2741.37 680.291 2753.63 662.702 2750.34 644.294L2723.06 491.578C2719.77 473.17 2702.18 460.914 2683.77 464.202Z" fill="#FF7900"/>
<path d="M2622.2 588.602L2531.4 555.821L2548.4 650.779L2622.2 588.602Z" fill="white"/>
<path d="M1656.46 1859.69H1002.68C989.121 1859.69 978.131 1870.68 978.131 1884.23V1919.09C978.131 1932.65 989.121 1943.64 1002.68 1943.64H1656.46C1670.02 1943.64 1681.01 1932.65 1681.01 1919.09V1884.23C1681.01 1870.68 1670.02 1859.69 1656.46 1859.69Z" fill="#FF7900"/>
<path d="M1649.07 2733.62H1668.54L1646.15 1943.64H1619.14L1649.07 2733.62Z" fill="#FF7900"/>
<path opacity="0.3" d="M1649.07 2733.62H1668.54L1646.15 1943.64H1619.14L1649.07 2733.62Z" fill="white"/>
<path d="M1469.54 2733.62H1450.07L1472.54 1943.64H1499.48L1469.54 2733.62Z" fill="#FF7900"/>
<path opacity="0.3" d="M1469.54 2733.62H1450.07L1472.54 1943.64H1499.48L1469.54 2733.62Z" fill="white"/>
<path d="M1189.59 2733.62H1209.14L1186.67 1943.64H1159.66L1189.59 2733.62Z" fill="#FF7900"/>
<path opacity="0.3" d="M1189.59 2733.62H1209.14L1186.67 1943.64H1159.66L1189.59 2733.62Z" fill="white"/>
<path d="M1010.14 2733.62H990.597L1013.07 1943.64H1040L1010.14 2733.62Z" fill="#FF7900"/>
<path opacity="0.3" d="M1010.14 2733.62H990.597L1013.07 1943.64H1040L1010.14 2733.62Z" fill="white"/>
<path d="M1856.92 2532.86L1926.33 2509.39L1869.23 2347.33L1799.9 2370.8L1856.92 2532.86Z" fill="#FFC3BD"/>
<path d="M1921.17 2482.61L1845.14 2516.31C1844.51 2516.53 1843.94 2516.89 1843.46 2517.35C1842.98 2517.82 1842.61 2518.38 1842.37 2519C1842.13 2519.62 1842.02 2520.29 1842.06 2520.95C1842.1 2521.62 1842.29 2522.27 1842.6 2522.85L1871.46 2581.49C1873.27 2584.56 1876.12 2586.89 1879.5 2588.03C1882.87 2589.17 1886.55 2589.07 1889.85 2587.72C1916.09 2575.64 1927.87 2568.64 1961.34 2553.94C1981.96 2544.94 2023.44 2528.86 2049.14 2512.31C2074.84 2495.77 2054.68 2471.91 2042.06 2476.68C2012.13 2488.07 1962.34 2487.61 1935.1 2481.76C1930.48 2480.6 1925.62 2480.9 1921.17 2482.61Z" fill="#263238"/>
<path opacity="0.2" d="M1799.9 2370.88L1869.31 2347.33L1901.86 2440.05L1831.29 2460.22L1799.9 2370.88Z" fill="black"/>
<path d="M1365.27 1640.53C1365.27 1640.53 1711.56 1703.01 1739.49 1816.75C1794.36 2041.6 1918.09 2393.27 1918.09 2393.27L1786.35 2431.74C1786.35 2431.74 1597.98 2028.44 1574.27 1892.7C1379.97 1892.7 1143.35 1908.09 1112.57 1825.9C1085.56 1752.95 1095.17 1640.84 1095.17 1640.84L1365.27 1640.53Z" fill="#263238"/>
<path d="M1779.12 2454.75L1933.02 2403.96L1919.86 2334.48L1752.03 2393.58L1779.12 2454.75Z" fill="#FF7900"/>
<path d="M1555.27 2557.48L1631.91 2563.33L1586.89 2374.18L1515.41 2390.34L1555.27 2557.48Z" fill="#FFC3BD"/>
<path d="M1629.99 2544.86L1547.42 2535.71C1546.75 2535.58 1546.07 2535.61 1545.42 2535.77C1544.76 2535.94 1544.15 2536.24 1543.62 2536.67C1543.1 2537.09 1542.67 2537.62 1542.37 2538.23C1542.07 2538.83 1541.9 2539.49 1541.88 2540.17L1537.57 2605.42C1537.71 2608.95 1539.07 2612.33 1541.41 2614.98C1543.75 2617.62 1546.93 2619.39 1550.42 2619.97C1579.12 2622.66 1592.9 2622.43 1629.22 2626.43C1651.53 2628.89 1695.55 2635.74 1726.1 2634.13C1756.65 2632.51 1751.11 2601.81 1737.72 2599.73C1706.09 2594.57 1663.31 2569.33 1642.61 2550.63C1639.11 2547.43 1634.7 2545.41 1629.99 2544.86V2544.86Z" fill="#263238"/>
<path opacity="0.2" d="M1515.41 2390.42L1586.89 2374.26L1609.59 2469.83L1537.34 2482.53L1515.41 2390.42Z" fill="black"/>
<path d="M1185.05 1640.53C1185.05 1640.53 1606.05 1703.55 1586.74 1862.92C1558.96 2092.7 1630.29 2425.05 1630.29 2425.05L1495.24 2449.21C1495.24 2449.21 1395.98 2036.14 1395.21 1898.32C1258.23 1898.32 1018.92 1908.09 988.288 1825.6C961.278 1752.65 970.897 1640.53 970.897 1640.53H1185.05Z" fill="#263238"/>
<path d="M1485.93 2471.68L1644.38 2437.21L1638.53 2366.8L1465.39 2407.97L1485.93 2471.68Z" fill="#FF7900"/>
<path d="M1407.14 1197.67C1418.37 1241.69 1429.37 1286.09 1440.15 1330.34C1450.92 1374.58 1461.46 1418.91 1472.62 1462.62L1481.01 1495.17L1485.32 1511.17L1487.55 1518.87V1519.87V1520.33C1487.55 1520.33 1487.55 1519.64 1487.16 1519.33C1486.58 1517.76 1485.86 1516.24 1485.01 1514.79L1483.86 1513.02L1483.01 1511.87L1481.47 1510.17C1479.85 1508.63 1479.62 1508.86 1480.01 1509.25C1480.84 1510.1 1481.77 1510.85 1482.78 1511.48C1486.17 1513.76 1489.71 1515.8 1493.4 1517.56C1501.71 1521.64 1511.4 1525.26 1521.33 1529.26C1561.35 1544.11 1605.52 1556.73 1648.46 1570.35L1641.68 1619.44C1618.05 1619.72 1594.42 1618.79 1570.89 1616.67C1546.94 1614.7 1523.12 1611.36 1499.55 1606.67C1486.9 1604.21 1474.41 1600.98 1462.16 1596.97C1455.08 1594.71 1448.17 1591.99 1441.46 1588.82C1437.33 1586.9 1433.34 1584.68 1429.53 1582.2C1424.22 1578.82 1419.34 1574.81 1414.98 1570.27C1413.6 1568.73 1412.29 1567.27 1410.75 1565.27L1408.6 1562.35L1406.44 1558.73C1404.86 1556.02 1403.49 1553.19 1402.36 1550.26L1401.13 1546.72L1398.13 1538.26L1392.36 1521.48C1388.59 1510.33 1384.67 1499.17 1381.51 1488.09C1367.58 1443.61 1354.89 1399.36 1343.03 1354.81C1331.18 1310.25 1319.95 1265.77 1309.64 1220.68L1407.14 1197.67Z" fill="#FFC3BD"/>
<path d="M1298.94 1144.42C1341.19 1097.33 1408.14 1130.26 1436.38 1235.69C1450.07 1286.94 1445.76 1313.72 1445.76 1313.72L1300.02 1358.66C1268.7 1289.4 1241.46 1208.6 1298.94 1144.42Z" fill="#FF7900"/>
<g opacity="0.2">
<path d="M1298.94 1144.42C1341.19 1097.33 1408.14 1130.26 1436.38 1235.69C1450.07 1286.94 1445.76 1313.72 1445.76 1313.72L1300.02 1358.66C1268.7 1289.4 1241.46 1208.6 1298.94 1144.42Z" fill="black"/>
</g>
<path d="M1724.87 1550.57L1711.79 1546.57C1703.86 1544.18 1695.54 1543.42 1687.32 1544.34L1659.23 1547.65C1650.17 1549.8 1641.67 1553.84 1634.29 1559.5C1626.9 1565.16 1620.79 1572.32 1616.37 1580.51L1606.82 1599.13C1611.6 1633.45 1681.16 1622.21 1681.16 1622.21H1746.8L1744.64 1575.58C1744.31 1569.89 1742.24 1564.43 1738.7 1559.96C1735.16 1555.48 1730.33 1552.21 1724.87 1550.57Z" fill="#FFC3BD"/>
<path d="M1769.88 1475.47C1768.02 1488.11 1762.69 1499.99 1754.49 1509.79C1747.49 1520.02 1740.26 1530.18 1732.95 1540.57C1718.25 1560.65 1703.24 1580.43 1686.78 1599.28C1686.06 1600.1 1685.06 1600.62 1683.98 1600.76C1682.9 1600.89 1681.81 1600.62 1680.91 1600.01C1680.02 1599.39 1679.37 1598.47 1679.11 1597.42C1678.84 1596.36 1678.97 1595.25 1679.47 1594.28C1690.86 1571.96 1703.71 1550.73 1716.86 1529.64C1723.48 1519.12 1730.25 1508.69 1737.18 1498.32C1743.16 1486.99 1752.13 1477.52 1763.11 1470.93C1763.93 1470.43 1764.86 1470.17 1765.81 1470.18C1766.77 1470.19 1767.7 1470.47 1768.5 1470.98C1769.3 1471.5 1769.95 1472.22 1770.35 1473.09C1770.76 1473.95 1770.92 1474.91 1770.81 1475.85L1769.88 1475.47Z" fill="#263238"/>
<path d="M1308.71 1098.79L1226.61 1075.7L1120.95 1070.78C1104.93 1070.03 1089.1 1074.56 1075.91 1083.68C1062.72 1092.8 1052.88 1106.01 1047.93 1121.26C1027.76 1182.82 1009.45 1271.47 995.753 1348.19C979.501 1444.82 971.24 1542.62 971.051 1640.61H1365.27C1373.35 1421.68 1399.13 1314.72 1414.37 1237.23C1418.84 1214.27 1415.56 1190.48 1405.04 1169.59C1394.53 1148.69 1377.37 1131.89 1356.27 1121.8L1308.71 1098.79Z" fill="#FF7900"/>
<path d="M1198.6 1114.18C1208.6 1139.88 1247.31 1194.83 1292.32 1216.3C1317.33 1198.21 1322.72 1158.74 1326.49 1140.27L1198.6 1114.18Z" fill="white"/>
<path d="M1326.49 1140.27C1329.41 1130.11 1328.19 1119.21 1323.1 1109.95C1316.72 1099.94 1318.33 1088.48 1324.72 1076.7C1329.78 1067.33 1336.13 1058.7 1343.57 1051.08L1291.94 990.673L1249.85 941.886C1246.23 987.518 1242.69 1044.08 1206.68 1079.48C1193.98 1092.02 1191.29 1095.79 1198.6 1114.18C1208.6 1139.88 1244.77 1175.74 1289.4 1197.21C1299.07 1190.67 1307.33 1182.27 1313.7 1172.49C1320.07 1162.71 1324.42 1151.75 1326.49 1140.27V1140.27Z" fill="#FFC3BD"/>
<path opacity="0.2" d="M1327.72 1040.69L1298.56 993.366C1298.02 994.598 1297.33 995.906 1296.63 997.291C1294.01 1003.15 1291.9 1009.23 1290.32 1015.45C1285.01 1036.46 1302.87 1066.47 1322.41 1080.78C1323.26 1079.48 1323.95 1078.09 1324.72 1076.7C1329.7 1067.82 1335.6 1059.49 1342.34 1051.85C1342.73 1051.55 1343.14 1051.3 1343.57 1051.08L1327.72 1040.69Z" fill="black"/>
<path d="M1429.6 927.573C1436.38 971.204 1498.86 858.932 1463.93 834.308C1421.29 804.143 1416.83 844.542 1429.6 927.573Z" fill="#263238"/>
<path d="M1251.77 870.629C1247.77 941.501 1241.69 982.67 1274.24 1023.61C1323.18 1085.17 1417.14 1064.85 1443.07 997.06C1466.16 935.961 1469 830.383 1400.9 792.985C1332.8 755.587 1255.77 799.834 1251.77 870.629Z" fill="#FFC3BD"/>
<path d="M1391.44 828.075C1391.44 828.075 1436.76 872.553 1469.08 854.161C1501.4 835.77 1507.94 788.137 1469.08 746.429C1450.38 726.345 1422.06 706.722 1366.5 707.953C1370.89 712.224 1376.14 715.504 1381.9 717.572C1381.9 717.572 1311.41 705.799 1262.31 726.037C1266.24 731.954 1271.52 736.858 1277.7 740.35C1229.92 736.733 1183.44 755.74 1216.14 800.603C1172.82 804.835 1163.12 860.24 1186.21 896.792C1209.29 933.344 1213.37 960.739 1244.23 977.361C1244.23 927.573 1255.69 915.799 1255.69 915.799C1277.93 906.334 1303.56 858.932 1298.4 835C1345.96 854.161 1396.67 860.471 1391.44 828.075Z" fill="#263238"/>
<path d="M1227.53 798.987C1212.45 788.239 1200.74 773.428 1193.75 756.279C1188.21 781.057 1213.83 809.298 1213.83 809.298L1227.53 798.987Z" fill="#263238"/>
<path d="M1216.37 909.335C1216.9 925.564 1223.27 941.057 1234.3 952.967C1249 968.357 1269.01 955.276 1272.78 935.499C1275.86 917.723 1268.31 890.559 1249.69 882.556C1231.07 874.553 1215.83 889.482 1216.37 909.335Z" fill="#FFC3BD"/>
<path d="M1367.81 907.181C1366.66 913.029 1368.74 918.493 1372.51 919.416C1376.28 920.34 1380.2 916.338 1381.51 910.49C1382.82 904.642 1380.59 899.178 1376.82 898.255C1373.05 897.331 1368.97 901.41 1367.81 907.181Z" fill="#263238"/>
<path d="M1433.22 922.802C1431.99 928.65 1434.15 934.037 1437.92 934.96C1441.69 935.884 1445.61 931.882 1446.92 926.034C1448.23 920.185 1445.92 914.722 1442.15 913.875C1438.38 913.029 1434.38 916.954 1433.22 922.802Z" fill="#263238"/>
<path d="M1411.44 922.34C1413.15 939.102 1417.08 955.562 1423.14 971.281C1412.37 976.745 1398.82 968.511 1398.82 968.511L1411.44 922.34Z" fill="#ED847E"/>
<path d="M1386.74 1001.22C1379.97 999.797 1373.55 997.02 1367.87 993.053C1362.2 989.085 1357.39 984.009 1353.73 978.13C1353.58 977.927 1353.48 977.695 1353.43 977.449C1353.38 977.204 1353.38 976.95 1353.44 976.705C1353.49 976.461 1353.6 976.23 1353.75 976.03C1353.9 975.829 1354.09 975.663 1354.31 975.542C1354.53 975.421 1354.77 975.349 1355.02 975.329C1355.27 975.309 1355.53 975.342 1355.76 975.427C1356 975.512 1356.21 975.646 1356.39 975.82C1356.57 975.994 1356.72 976.204 1356.81 976.437C1360.89 982.72 1366.35 987.984 1372.78 991.826C1379.21 995.667 1386.43 997.985 1393.9 998.599C1394.13 998.608 1394.35 998.664 1394.55 998.764C1394.76 998.864 1394.94 999.006 1395.08 999.18C1395.23 999.354 1395.33 999.557 1395.39 999.775C1395.46 999.993 1395.47 1000.22 1395.44 1000.45C1395.43 1000.68 1395.37 1000.9 1395.27 1001.11C1395.17 1001.31 1395.03 1001.5 1394.86 1001.65C1394.69 1001.8 1394.49 1001.92 1394.27 1001.99C1394.05 1002.06 1393.82 1002.08 1393.59 1002.06C1391.29 1001.92 1389.01 1001.63 1386.74 1001.22V1001.22Z" fill="#263238"/>
<path d="M1359.19 883.634C1358.66 883.419 1358.18 883.075 1357.81 882.634C1357.23 881.915 1356.95 880.997 1357.04 880.077C1357.12 879.157 1357.57 878.307 1358.27 877.709C1362.44 874.113 1367.43 871.6 1372.79 870.392C1378.16 869.184 1383.75 869.318 1389.05 870.783C1389.93 871.079 1390.65 871.711 1391.06 872.541C1391.48 873.371 1391.54 874.33 1391.25 875.208C1390.95 876.085 1390.32 876.809 1389.49 877.221C1388.66 877.632 1387.7 877.697 1386.82 877.401C1382.64 876.342 1378.27 876.307 1374.08 877.299C1369.89 878.29 1365.99 880.278 1362.73 883.095C1362.25 883.499 1361.66 883.763 1361.04 883.858C1360.42 883.953 1359.78 883.875 1359.19 883.634V883.634Z" fill="#263238"/>
<path d="M1441.3 884.942C1441.19 884.383 1441.19 883.808 1441.3 883.249C1441.57 882.366 1442.17 881.62 1442.97 881.162C1443.77 880.704 1444.71 880.57 1445.61 880.787C1450.91 882.199 1455.79 884.887 1459.81 888.615C1463.83 892.344 1466.89 897.001 1468.7 902.179C1468.83 902.619 1468.87 903.08 1468.82 903.535C1468.77 903.99 1468.63 904.431 1468.4 904.832C1468.18 905.233 1467.88 905.586 1467.52 905.87C1467.16 906.154 1466.75 906.364 1466.31 906.488C1465.87 906.618 1465.41 906.658 1464.96 906.608C1464.5 906.557 1464.06 906.417 1463.66 906.195C1463.26 905.974 1462.9 905.674 1462.62 905.315C1462.34 904.956 1462.13 904.544 1462 904.103C1460.52 900.053 1458.07 896.427 1454.86 893.543C1451.66 890.658 1447.79 888.604 1443.61 887.558C1443.04 887.346 1442.53 886.996 1442.13 886.54C1441.72 886.084 1441.44 885.535 1441.3 884.942Z" fill="#263238"/>
<path d="M1137.42 1176.43C1122.65 1218.6 1107.87 1262.54 1094.71 1305.64C1088.02 1327.18 1081.94 1348.81 1076.47 1370.12C1071.18 1390.59 1067.07 1411.35 1064.16 1432.3C1064.16 1434.61 1063.55 1437.15 1063.47 1439.38V1442.76C1063.47 1443.84 1063.47 1445.46 1063.47 1444.92C1063.47 1444.38 1062.85 1445.38 1063.47 1447C1065.42 1452.88 1068.59 1458.28 1072.78 1462.85C1086 1477.48 1100.99 1490.41 1117.41 1501.32C1154.47 1526.31 1193.16 1548.78 1233.22 1568.58L1216.76 1615.98C1192.91 1610.78 1169.4 1604.15 1146.35 1596.13C1122.86 1588.08 1099.93 1578.49 1077.71 1567.42C1053.33 1555.54 1030.79 1540.22 1010.76 1521.95C998.03 1510.22 987.774 1496.06 980.593 1480.32C976.112 1470.2 973.505 1459.35 972.898 1448.3C972.898 1444.84 972.898 1443.61 972.898 1441.76V1436.38C972.898 1432.76 972.898 1429.45 972.898 1425.99C974.223 1400.37 977.438 1374.88 982.517 1349.73C987.134 1325.41 992.905 1301.86 999.138 1278.47C1011.62 1232.01 1026.55 1186.24 1043.85 1141.34L1137.42 1176.43Z" fill="#FFC3BD"/>
<path d="M1115.8 1070.32C1191.06 1069.63 1205.29 1128.19 1164.35 1220.99C1148.69 1254.52 1129.55 1286.33 1107.26 1315.87L982.825 1249.77C999.446 1175.66 1029.84 1071.09 1115.8 1070.32Z" fill="#FF7900"/>
<path d="M1323.57 1561.19L1296.02 1545.8C1291.51 1543.33 1286.34 1542.36 1281.24 1543.03L1248.15 1547.65C1225.91 1549.96 1209.68 1566.96 1197.6 1581.74L1183.51 1598.97C1182.82 1633.76 1270.7 1625.6 1270.7 1625.6L1347.65 1624.6L1345.27 1594.28C1344.66 1587.4 1342.36 1580.78 1338.57 1575.01C1334.79 1569.24 1329.63 1564.49 1323.57 1561.19Z" fill="#FFC3BD"/>
<path d="M2965.25 1607.44H882.249V1704.94H2965.25V1607.44Z" fill="#FF7900"/>
<path opacity="0.3" d="M1557.88 1607.44H882.249V1704.94H1557.88V1607.44Z" fill="white"/>
<path d="M938.039 1704.94H906.181V2779.8H938.039V1704.94Z" fill="#FF7900"/>
<path opacity="0.7" d="M938.039 1704.94H906.181V2779.8H938.039V1704.94Z" fill="white"/>
<path d="M1534.03 1704.94H1502.17V2779.8H1534.03V1704.94Z" fill="#FF7900"/>
<path opacity="0.7" d="M1534.03 1704.94H1502.17V2779.8H1534.03V1704.94Z" fill="white"/>
<path d="M2345.4 1704.94H2313.55V2779.8H2345.4V1704.94Z" fill="#FF7900"/>
<path opacity="0.7" d="M2345.4 1704.94H2313.55V2779.8H2345.4V1704.94Z" fill="white"/>
<path d="M2941.39 1704.94H2909.54V2779.8H2941.39V1704.94Z" fill="#FF7900"/>
<path opacity="0.7" d="M2941.39 1704.94H2909.54V2779.8H2941.39V1704.94Z" fill="white"/>
<path d="M2739.47 1176.51H2170.03C2160.27 1176.86 2150.92 1180.52 2143.51 1186.88C2136.1 1193.24 2131.07 1201.93 2129.25 1211.52L2069.84 1572.35C2068.93 1576.65 2069.01 1581.1 2070.07 1585.37C2071.13 1589.64 2073.14 1593.61 2075.96 1596.98C2078.77 1600.36 2082.31 1603.06 2086.32 1604.87C2090.32 1606.68 2094.69 1607.56 2099.08 1607.44H2668.52C2678.31 1607.1 2687.69 1603.44 2695.11 1597.06C2702.54 1590.69 2707.57 1581.97 2709.39 1572.35L2768.79 1211.52C2769.7 1207.22 2769.63 1202.77 2768.56 1198.5C2767.5 1194.23 2765.48 1190.26 2762.65 1186.88C2759.83 1183.51 2756.28 1180.82 2752.26 1179.03C2748.24 1177.23 2743.87 1176.37 2739.47 1176.51V1176.51Z" fill="#263238"/>
<path d="M2377.88 1583.89H1841.76C1838.23 1583.89 1835.37 1586.75 1835.37 1590.28V1601.05C1835.37 1604.58 1838.23 1607.44 1841.76 1607.44H2377.88C2381.41 1607.44 2384.26 1604.58 2384.26 1601.05V1590.28C2384.26 1586.75 2381.41 1583.89 2377.88 1583.89Z" fill="#263238"/>
<path opacity="0.2" d="M2739.47 1176.51H2182.5C2172.74 1176.86 2163.39 1180.52 2155.98 1186.88C2148.57 1193.24 2143.54 1201.93 2141.71 1211.52L2082.31 1572.35C2081.38 1576.65 2081.45 1581.11 2082.5 1585.38C2083.56 1589.66 2085.57 1593.63 2088.38 1597.01C2091.2 1600.4 2094.75 1603.09 2098.76 1604.9C2102.78 1606.7 2107.15 1607.57 2111.55 1607.44H2668.14C2677.92 1607.1 2687.3 1603.44 2694.73 1597.06C2702.15 1590.69 2707.19 1581.97 2709 1572.35L2768.41 1211.52C2769.31 1207.25 2769.24 1202.83 2768.2 1198.59C2767.15 1194.35 2765.17 1190.4 2762.39 1187.04C2759.61 1183.67 2756.1 1180.98 2752.13 1179.15C2748.17 1177.33 2743.84 1176.43 2739.47 1176.51V1176.51Z" fill="white"/>
<path d="M1265.54 1583.89C1265.54 1583.89 1448.92 1611.21 1537.41 1575.12C1578.81 1595.05 1726.25 1604.9 1777.58 1583.89C1761.73 1602.28 1724.48 1607.44 1724.48 1607.44H1337.65C1300.48 1607.44 1272.08 1591.2 1265.54 1583.89Z" fill="#FF7900"/>
<path opacity="0.7" d="M1265.54 1583.89C1265.54 1583.89 1448.92 1611.21 1537.41 1575.12C1578.81 1595.05 1726.25 1604.9 1777.58 1583.89C1761.73 1602.28 1724.48 1607.44 1724.48 1607.44H1337.65C1300.48 1607.44 1272.08 1591.2 1265.54 1583.89Z" fill="white"/>
</svg>
