<svg id="_лой_1" data-name="‘лой_1" xmlns="http://www.w3.org/2000/svg" viewBox="0 0 2665.91 1589.32"><defs><style>.cls-1{fill:#ebf3fa;}.cls-2,.cls-3,.cls-8{fill:#aec3ff;}.cls-2{opacity:0.3;}.cls-4{fill:#0b0755;}.cls-5{fill:#f78248;}.cls-6,.cls-8{opacity:0.5;}.cls-7{fill:#060633;}.cls-9{fill:#f99746;}.cls-10{fill:#2c3a64;}.cls-11{fill:#ffb27d;}.cls-12{fill:#94b0ed;}.cls-13{fill:#ed985f;}.cls-14{fill:#ed7d2b;}.cls-15{fill:#304b77;}.cls-16{fill:#fcecdb;}.cls-17{fill:#699dee;}.cls-18{fill:#548ee2;}.cls-19{fill:#f4d2b8;}.cls-20{fill:#505aba;}.cls-21{fill:#233862;}.cls-22{fill:#a9453d;}.cls-23{fill:#ed975d;}.cls-24{fill:#fff;}.cls-25{fill:#334272;}.cls-26{fill:#fca56b;}.cls-27{fill:#163560;}.cls-28{fill:#ea642f;}.cls-29{fill:#ef873a;}.cls-30{fill:#2e3552;}</style></defs><title>bg</title><path class="cls-1" d="M342.92,1782.2S10.85,1489.59,222.11,1145.33s495-171.14,481.26-571.83S1355.91,138.38,1568,254.56s210.81,256.12,648.62,209.82S2738.06,804,2624.16,1000.72c-161.61,279.08,448.53,233,64.08,781.48Z" transform="translate(-151.78 -196.34)"/><path class="cls-2" d="M1792.83,1019.61s79.75-165.36,222.85-153.83c0,0,27.75,2.66,30.17,34.4s-51.35,20.07-87.2,24.7S1834.17,963.11,1792.83,1019.61Z" transform="translate(-151.78 -196.34)"/><path class="cls-2" d="M1796.89,986.26s17.53-147.7,130.21-176.58c0,0,22-5.27,32.18,18.41s-34,28.91-60.3,41.9S1813.68,932.08,1796.89,986.26Z" transform="translate(-151.78 -196.34)"/><path class="cls-2" d="M1461.26,1218.59s56.1,129.68,31.4,138.41-52.13-148.92-52.13-148.92-139.23-33.07-187.4-17.56c0,0,107.81,115.07,81.67,117.43S1191,1195.74,1191,1195.74s-134.11,4.21-137.43,85.08,38.7,111.77,58.85,112.39,142.12-27.67,142.55-11.06-76.4,60.08-125.73,55.81c0,0,79.36,114.59,144.65,93.67s76.55-66.79,117.14-79,73.3-7.64,55.17,8-89.73,23.4-116.65,59.08-50,59.08,14.89,58.29,174.26-33,185.68-85.59h0c12.94,4.19,37.31,32.29,54.75,54.12,2.64,3.79,6.62,9,12.38,15.9h0c2.42,3.18,4.37,5.79,5.72,7.61,34.26,50,44.13,147,44.13,147l14,.67c7.73-101.64-61.48-168.65-61.48-168.65-47.45-54.77-58.13-109.21-58.13-109.21s104-92.81,27.81-171.36C1569.29,1268.49,1512.17,1222.51,1461.26,1218.59Z" transform="translate(-151.78 -196.34)"/><path class="cls-2" d="M2048.34,1701.12c23.43-33.55-28.83-76.84-28.83-76.84s-82.09,9.57-91.81.51,68.57-21.89,68.57-21.89c-14.48-21.18-80.22-51.06-80.22-51.06s-59.22,54.88-66.41,43.71,54.92-45.91,54.92-45.91c-21.53-14.22-58.42-13.44-58.42-13.44-54.48,8-41.37,77.52-41.37,77.52s-20.94,18.58-56.65,25.88h0a95.82,95.82,0,0,0-17.33,4.22l4.33,5.17c1.73-.73,3.46-1.39,5.18-2h0l.07,0c1.1-.31,2.66-.75,4.57-1.27h0c4.41-1,7.58-1.84,9.79-2.54h0c13.65-3.37,32-7.11,38.43-4.78a12.79,12.79,0,0,1,1.44-3.08l-1.44,3.08c-11.54,24.68,22.29,71.57,47.94,92s23.62,3.88,23.8-18.82-26-48-28.5-59.93,12-3.6,24.49,13.89,2.93,39.43,22.59,68.09,86.45,7.2,86.45,7.2c-21-13.58-38.38-54.9-33.12-61.44s45.31,42.66,53.54,48.66S2024.9,1734.66,2048.34,1701.12Z" transform="translate(-151.78 -196.34)"/><path class="cls-3" d="M1020.54,890.67l34.25,537.14-16.92,1.08c-.19,0-12.86-51-12.86-51l-31-485.5Z" transform="translate(-151.78 -196.34)"/><polygon class="cls-4" points="889.76 1232.31 897.86 1266.59 899.69 1231.68 889.76 1232.31"/><path class="cls-5" d="M1030.92,1372.13a17,17,0,1,1,18,15.85A17,17,0,0,1,1030.92,1372.13Z" transform="translate(-151.78 -196.34)"/><path class="cls-3" d="M1033.22,887.37l260.6,470.94,14.83-8.21c.17-.09-16.66-49.92-16.66-49.92L1056.45,874.52Z" transform="translate(-151.78 -196.34)"/><polygon class="cls-4" points="1153.64 1155.54 1165.29 1188.77 1144.93 1160.36 1153.64 1155.54"/><rect class="cls-5" x="1242.39" y="1187.93" width="9.59" height="42.77" transform="matrix(0.87, -0.48, 0.48, 0.87, -581.39, 558.79)"/><rect class="cls-4" x="997.73" y="788.47" width="19.91" height="68.57" transform="translate(-339.47 113.15) rotate(-15.99)"/><path class="cls-5" d="M1059.22,870.09l-4.06,38L1073.75,973l-42.53,12.18-18.59-64.84-23.58-30.08a36.49,36.49,0,0,1,25-45.12h0A36.47,36.47,0,0,1,1059.22,870.09Z" transform="translate(-151.78 -196.34)"/><path class="cls-4" d="M1014.27,881.85a10,10,0,1,1,12.31,6.83A10,10,0,0,1,1014.27,881.85Z" transform="translate(-151.78 -196.34)"/><g class="cls-6"><polygon class="cls-3" points="2026.93 542.78 2020.18 542.78 2020.18 540.31 2024.46 540.31 2024.46 536.04 2026.93 536.04 2026.93 542.78"/><path class="cls-3" d="M2160.52,739.13h-11.46v-2.48h11.46Zm-22.91,0h-11.45v-2.48h11.45Zm-22.9,0h-11.45v-2.48h11.45Zm-22.9,0h-11.45v-2.48h11.45Zm-22.9,0h-11.45v-2.48h11.45Zm-22.91,0h-11.45v-2.48H2046Zm-22.9,0h-11.45v-2.48h11.45Zm-22.9,0h-11.45v-2.48h11.45Zm-22.9,0h-11.45v-2.48h11.45Z" transform="translate(-151.78 -196.34)"/><polygon class="cls-3" points="1802.61 542.78 1795.87 542.78 1795.87 536.04 1798.34 536.04 1798.34 540.31 1802.61 540.31 1802.61 542.78"/><path class="cls-3" d="M1950.12,721.83h-2.47V711.29h2.47Zm0-21.09h-2.47V690.19h2.47Zm0-21.1h-2.47V669.09h2.47Zm0-21.09h-2.47V648h2.47Zm0-21.1h-2.47V626.9h2.47Zm0-21.09h-2.47V605.81h2.47Zm0-21.1h-2.47V584.71h2.47Zm0-21.09h-2.47V563.62h2.47Z" transform="translate(-151.78 -196.34)"/><polygon class="cls-3" points="1798.34 356.73 1795.87 356.73 1795.87 349.99 1802.61 349.99 1802.61 352.46 1798.34 352.46 1798.34 356.73"/><path class="cls-3" d="M2160.52,548.8h-11.46v-2.47h11.46Zm-22.91,0h-11.45v-2.47h11.45Zm-22.9,0h-11.45v-2.47h11.45Zm-22.9,0h-11.45v-2.47h11.45Zm-22.9,0h-11.45v-2.47h11.45Zm-22.91,0h-11.45v-2.47H2046Zm-22.9,0h-11.45v-2.47h11.45Zm-22.9,0h-11.45v-2.47h11.45Zm-22.9,0h-11.45v-2.47h11.45Z" transform="translate(-151.78 -196.34)"/><polygon class="cls-3" points="2026.93 356.73 2024.46 356.73 2024.46 352.46 2020.18 352.46 2020.18 349.99 2026.93 349.99 2026.93 356.73"/><path class="cls-3" d="M2178.71,721.83h-2.47V711.29h2.47Zm0-21.09h-2.47V690.19h2.47Zm0-21.1h-2.47V669.09h2.47Zm0-21.09h-2.47V648h2.47Zm0-21.1h-2.47V626.9h2.47Zm0-21.09h-2.47V605.81h2.47Zm0-21.1h-2.47V584.71h2.47Zm0-21.09h-2.47V563.62h2.47Z" transform="translate(-151.78 -196.34)"/></g><g class="cls-6"><path class="cls-3" d="M2211.71,832.49c-4.13,0-8.3-.22-12.39-.64l.28-2.74a119.33,119.33,0,0,0,12.11.62Zm12.39-.62-.27-2.74a118,118,0,0,0,12-1.83l.55,2.7A120.26,120.26,0,0,1,2224.1,831.87Zm-37-1.92a118.39,118.39,0,0,1-12-3.14l.84-2.63a118.26,118.26,0,0,0,11.73,3.08Zm61.32-3.07-.83-2.63a115.82,115.82,0,0,0,11.36-4.25l1.1,2.53A124.12,124.12,0,0,1,2248.38,826.88Zm-85-4.44a123.6,123.6,0,0,1-11.11-5.54l1.36-2.4a119.16,119.16,0,0,0,10.85,5.41ZM2271.12,817l-1.35-2.4a118.65,118.65,0,0,0,10.25-6.48l1.59,2.25A121.76,121.76,0,0,1,2271.12,817Zm-129.28-6.76c-3.36-2.39-6.64-5-9.74-7.69l1.81-2.07a119.11,119.11,0,0,0,9.53,7.51Zm149.53-7.53-1.8-2.08a119.52,119.52,0,0,0,8.72-8.42l2,1.88A121.13,121.13,0,0,1,2291.37,802.72Zm-168.18-8.79a120.21,120.21,0,0,1-8-9.5l2.19-1.66a119,119,0,0,0,7.81,9.28Zm185.12-9.31-2.19-1.67a119.6,119.6,0,0,0,6.84-10l2.35,1.44A122,122,0,0,1,2308.31,784.62Zm-200.09-10.45a123.57,123.57,0,0,1-5.9-10.92l2.49-1.18c1.73,3.63,3.67,7.22,5.76,10.67Zm213-10.71-2.49-1.19a120.16,120.16,0,0,0,4.66-11.2l2.59.92A123.15,123.15,0,0,1,2321.23,763.46Zm-223.65-11.68a123.06,123.06,0,0,1-3.53-11.9l2.68-.65a114.91,114.91,0,0,0,3.45,11.63Zm232-11.68-2.68-.65a119.82,119.82,0,0,0,2.26-11.92l2.73.38A122.91,122.91,0,0,1,2329.55,740.1Zm-237.79-12.42a121.15,121.15,0,0,1-1-12.36l2.75-.09a118.51,118.51,0,0,0,1,12.08Zm241.15-12.14-2.75-.09c.05-1.37.07-2.74.07-4.12,0-2.67-.09-5.37-.27-8l2.75-.18c.18,2.7.27,5.46.27,8.19C2333,712.72,2333,714.14,2332.91,715.54Zm-239.49-4.21h-2.75c0-4.14.21-8.3.62-12.39l2.74.28C2093.63,703.21,2093.42,707.29,2093.42,711.33Zm235.12-20.05a119.12,119.12,0,0,0-2.65-11.84l2.65-.74a119.59,119.59,0,0,1,2.71,12.11Zm-232.67-4-2.69-.56a121,121,0,0,1,3.13-12l2.63.84A117.5,117.5,0,0,0,2095.87,687.23ZM2322,668a120.48,120.48,0,0,0-5-11l2.44-1.27a119.68,119.68,0,0,1,5.14,11.3Zm-218.83-3.81-2.53-1.1a123.52,123.52,0,0,1,5.53-11.11l2.4,1.35A116.71,116.71,0,0,0,2103.2,664.14Zm207.68-17.7c-2.21-3.36-4.62-6.66-7.16-9.79l2.13-1.73a121,121,0,0,1,7.33,10ZM2115.09,643l-2.25-1.59a121.82,121.82,0,0,1,7.68-9.75l2.07,1.81C2119.94,636.54,2117.42,639.75,2115.09,643Zm180.5-15.38c-2.85-2.85-5.88-5.59-9-8.14l1.74-2.13a121.06,121.06,0,0,1,9.21,8.32ZM2131,624.78l-1.88-2a118.74,118.74,0,0,1,9.49-8l1.66,2.19A117.18,117.18,0,0,0,2131,624.78Zm145.78-12.44a119.18,119.18,0,0,0-10.46-6.14l1.27-2.44a120.7,120.7,0,0,1,10.7,6.28Zm-126.49-2.21-1.43-2.35a120.81,120.81,0,0,1,10.92-5.9l1.18,2.48C2157.35,606.1,2153.76,608,2150.32,610.13Zm105-9a116.58,116.58,0,0,0-11.49-3.87l.74-2.65a118.55,118.55,0,0,1,11.76,4Zm-83.12-1.45-.92-2.59a120.41,120.41,0,0,1,11.9-3.55l.65,2.68A117.59,117.59,0,0,0,2172.19,599.72Zm59.8-5.08a118.74,118.74,0,0,0-12-1.44l.18-2.75a123.61,123.61,0,0,1,12.32,1.47Zm-36.26-.63-.37-2.73c4.07-.55,8.23-.9,12.36-1l.1,2.75C2203.78,593.13,2199.71,593.47,2195.73,594Z" transform="translate(-151.78 -196.34)"/></g><polygon class="cls-3" points="667.63 1582.4 522.03 1354.5 816.04 1166.68 667.63 1582.4"/><polygon class="cls-1" points="654.53 1474.06 588.74 1371.07 721.6 1286.2 654.53 1474.06"/><rect class="cls-7" x="699.46" y="1541.54" width="1.55" height="19.76" transform="translate(-876.79 424.54) rotate(-32.57)"/><rect class="cls-7" x="704.94" y="1537.28" width="1.55" height="11.62" transform="translate(-871.45 426.18) rotate(-32.57)"/><rect class="cls-7" x="711.39" y="1533.16" width="1.55" height="11.62" transform="translate(-868.22 429.01) rotate(-32.57)"/><rect class="cls-7" x="717.51" y="1529.25" width="1.55" height="11.62" transform="translate(-865.16 431.69) rotate(-32.57)"/><rect class="cls-7" x="723.17" y="1525.63" width="1.55" height="11.62" transform="translate(-862.32 434.17) rotate(-32.57)"/><rect class="cls-7" x="729.48" y="1521.6" width="1.55" height="11.62" transform="translate(-859.19 436.99) rotate(-32.57)"/><rect class="cls-7" x="737.98" y="1516.93" width="1.55" height="19.75" transform="translate(-857.5 441.42) rotate(-32.57)"/><rect class="cls-7" x="743.46" y="1512.67" width="1.55" height="11.62" transform="translate(-852 442.81) rotate(-32.56)"/><rect class="cls-7" x="749.91" y="1508.55" width="1.55" height="11.62" transform="translate(-848.95 445.93) rotate(-32.57)"/><rect class="cls-7" x="756.03" y="1504.64" width="1.55" height="11.62" transform="translate(-846.36 449.4) rotate(-32.6)"/><rect class="cls-7" x="761.69" y="1501.03" width="1.55" height="11.62" transform="translate(-842.91 450.84) rotate(-32.56)"/><rect class="cls-7" x="768" y="1497" width="1.55" height="11.62" transform="translate(-839.86 453.81) rotate(-32.57)"/><rect class="cls-7" x="778.92" y="1490.78" width="1.55" height="19.75" transform="translate(-837.46 460.18) rotate(-32.6)"/><rect class="cls-7" x="784.4" y="1486.52" width="1.55" height="11.62" transform="translate(-831.63 460.97) rotate(-32.57)"/><rect class="cls-7" x="790.85" y="1482.4" width="1.55" height="11.62" transform="translate(-828.36 463.73) rotate(-32.56)"/><rect class="cls-7" x="796.97" y="1478.49" width="1.55" height="11.62" transform="translate(-825.34 466.49) rotate(-32.57)"/><rect class="cls-7" x="802.63" y="1474.88" width="1.55" height="11.62" transform="translate(-822.5 468.96) rotate(-32.57)"/><rect class="cls-7" x="808.94" y="1470.84" width="1.55" height="11.62" transform="translate(-819.81 472.58) rotate(-32.6)"/><rect class="cls-7" x="817.44" y="1466.17" width="1.55" height="19.76" transform="translate(-817.68 476.21) rotate(-32.57)"/><rect class="cls-7" x="822.92" y="1461.91" width="1.55" height="11.62" transform="translate(-812.33 477.85) rotate(-32.57)"/><rect class="cls-7" x="829.37" y="1457.79" width="1.55" height="11.62" transform="translate(-809.13 480.72) rotate(-32.57)"/><rect class="cls-7" x="835.49" y="1453.88" width="1.55" height="11.62" transform="translate(-806.02 483.32) rotate(-32.57)"/><rect class="cls-7" x="841.15" y="1450.27" width="1.55" height="11.62" transform="translate(-803.1 485.63) rotate(-32.56)"/><rect class="cls-7" x="847.46" y="1446.24" width="1.55" height="11.62" transform="translate(-800.05 488.6) rotate(-32.57)"/><rect class="cls-7" x="857.67" y="1440.47" width="1.55" height="19.75" transform="translate(-797.48 493.74) rotate(-32.56)"/><rect class="cls-7" x="863.15" y="1436.21" width="1.55" height="11.62" transform="translate(-792.17 495.46) rotate(-32.57)"/><rect class="cls-7" x="869.6" y="1432.09" width="1.55" height="11.62" transform="translate(-788.94 498.29) rotate(-32.57)"/><rect class="cls-7" x="875.72" y="1428.18" width="1.55" height="11.62" transform="translate(-786.24 501.71) rotate(-32.6)"/><rect class="cls-7" x="881.38" y="1424.57" width="1.55" height="11.62" transform="translate(-783.04 503.44) rotate(-32.57)"/><rect class="cls-7" x="887.69" y="1420.54" width="1.55" height="11.62" transform="translate(-779.9 506.26) rotate(-32.57)"/><rect class="cls-7" x="896.19" y="1415.87" width="1.55" height="19.75" transform="translate(-778.22 510.69) rotate(-32.57)"/><rect class="cls-7" x="901.67" y="1411.6" width="1.55" height="11.62" transform="translate(-772.87 512.33) rotate(-32.57)"/><rect class="cls-7" x="908.12" y="1407.49" width="1.55" height="11.62" transform="translate(-769.66 515.2) rotate(-32.57)"/><rect class="cls-7" x="914.24" y="1403.58" width="1.55" height="11.62" transform="translate(-766.6 517.88) rotate(-32.57)"/><rect class="cls-7" x="919.9" y="1399.96" width="1.55" height="11.62" transform="translate(-764.1 521.12) rotate(-32.6)"/><rect class="cls-7" x="926.21" y="1395.93" width="1.55" height="11.62" transform="translate(-760.58 523.08) rotate(-32.57)"/><rect class="cls-7" x="937.13" y="1389.71" width="1.55" height="19.75" transform="translate(-757.7 528.61) rotate(-32.57)"/><path class="cls-5" d="M2323,1562.51s1.73-84.91,86.64-95.31,246.95-4.33,246.95-4.33v48.94s-183.93-1.66-245.21,0C2385.94,1512.5,2355.09,1514.85,2323,1562.51Z" transform="translate(-151.78 -196.34)"/><path class="cls-5" d="M2459.93,1502.43s-6.93,253-45.06,273.81-89-4.62-60.07-53.14,46.21-50.83,56.61-107.44,10.39-113.23,10.39-113.23Z" transform="translate(-151.78 -196.34)"/><path class="cls-5" d="M2536.18,1502.43s-26.57,173.3-17.33,220.67,52,71.63,94.74,46.21,30-62.39,30-62.39-34.84,27.73-62.48,6.94-13.77-220.67-13.77-220.67Z" transform="translate(-151.78 -196.34)"/><path class="cls-3" d="M790.47,1287.38a154,154,0,1,1,108.93-45.12A153,153,0,0,1,790.47,1287.38Zm0-305.24a151.18,151.18,0,1,0,106.9,44.28A150.23,150.23,0,0,0,790.47,982.14Z" transform="translate(-151.78 -196.34)"/><path class="cls-3" d="M790.47,1181.7h-1.86v-1.6c2.38,0,4.76,0,7.12,0l0,1.6C794,1181.69,792.24,1181.7,790.47,1181.7Zm-9-.08c-2.39,0-4.79-.11-7.15-.19l.05-1.6c2.35.08,4.75.14,7.13.18Zm21.45-.08,0-1.6c2.38-.06,4.77-.14,7.13-.23l.06,1.6C807.7,1181.4,805.29,1181.48,802.91,1181.54Zm-35.74-.39c-2.38-.12-4.78-.25-7.14-.4l.1-1.6c2.35.15,4.74.28,7.11.4Zm50-.18-.08-1.6c2.37-.13,4.77-.28,7.11-.44l.11,1.59C822,1180.69,819.59,1180.84,817.2,1181Zm-64.31-.72c-2.38-.19-4.78-.4-7.13-.62l.16-1.6c2.33.23,4.72.43,7.1.62Zm78.58-.29-.14-1.59c2.37-.21,4.76-.43,7.1-.67l.16,1.59C836.25,1179.53,833.85,1179.76,831.47,1180Zm-92.82-1.07c-2.37-.27-4.76-.56-7.1-.86l.2-1.59c2.33.31,4.71.59,7.08.86Zm107.05-.4-.19-1.59c2.37-.28,4.75-.59,7.07-.92l.22,1.59C850.47,1177.89,848.08,1178.2,845.7,1178.49ZM724.46,1177c-2.38-.36-4.75-.74-7.07-1.13l.27-1.58c2.3.39,4.67.77,7,1.13Zm135.42-.53-.26-1.58c2.36-.37,4.73-.77,7-1.19l.28,1.58C864.62,1175.74,862.25,1176.14,859.88,1176.51Zm-149.53-1.87c-2.37-.46-4.73-.94-7-1.43l.33-1.57c2.28.49,4.63,1,7,1.43ZM874,1174l-.32-1.57c2.36-.48,4.7-1,7-1.5l.36,1.56C878.68,1173,876.33,1173.49,874,1174Zm-177.6-2.37c-2.37-.57-4.7-1.18-6.94-1.79l.43-1.55c2.22.62,4.54,1.22,6.89,1.79Zm191.56-.84-.4-1.55c2.34-.6,4.65-1.23,6.86-1.88l.45,1.54C892.6,1169.52,890.27,1170.16,887.92,1170.76Zm-205.38-3c-2.34-.73-4.63-1.48-6.81-2.25l.54-1.51c2.16.76,4.43,1.51,6.75,2.23Zm219.14-1-.5-1.52c2.3-.76,4.56-1.56,6.7-2.36l.56,1.49C906.28,1165.18,904,1166,901.68,1166.75ZM669,1163c-2.29-.94-4.51-1.91-6.58-2.89l.69-1.45c2,1,4.23,1.93,6.5,2.85Zm246.08-1.34-.64-1.47c2.25-1,4.4-2,6.4-3l.73,1.42C919.57,1159.63,917.38,1160.67,915.1,1161.67Zm-259-4.87a68.19,68.19,0,0,1-6.09-3.87l.93-1.3a68.82,68.82,0,0,0,6,3.78ZM927.85,1155l-.85-1.35a56.51,56.51,0,0,0,5.71-4.1l1,1.24A59.9,59.9,0,0,1,927.85,1155Zm-283.45-6.73a29.5,29.5,0,0,1-4.59-5.68l1.37-.83a27.65,27.65,0,0,0,4.34,5.37Zm294.51-2.58-1.23-1a21.43,21.43,0,0,0,3.53-5.84l1.49.58A23.07,23.07,0,0,1,938.91,1145.71Zm-301.68-10a15.89,15.89,0,0,1-.18-2.38,17.08,17.08,0,0,1,1.64-7.19l1.46.67a15.38,15.38,0,0,0-1.5,6.52,14.24,14.24,0,0,0,.16,2.15Zm305-3.46a16.24,16.24,0,0,0-2-6.43l1.42-.75a17.74,17.74,0,0,1,2.13,7.06ZM644,1121.13l-1.2-1.07a40.73,40.73,0,0,1,5.33-4.93l1,1.25A39.48,39.48,0,0,0,644,1121.13Zm292.21-.83a41.93,41.93,0,0,0-5.25-4.61l1-1.28a43.58,43.58,0,0,1,5.45,4.78Zm-281.3-7.9-.83-1.37c1.94-1.18,4.06-2.35,6.31-3.48l.71,1.43C658.88,1110.09,656.79,1111.24,654.89,1112.4Zm270.17-.59c-1.92-1.13-4-2.26-6.24-3.34l.7-1.44c2.26,1.1,4.4,2.25,6.35,3.4ZM667.52,1106l-.63-1.47c2.11-.9,4.36-1.79,6.67-2.65l.56,1.5C671.83,1104.24,669.61,1105.12,667.52,1106Zm244.84-.45c-2.1-.87-4.33-1.73-6.63-2.56l.55-1.51c2.32.84,4.57,1.71,6.69,2.6Zm-231.52-4.48-.5-1.53c2.21-.71,4.52-1.41,6.86-2.08l.44,1.54C685.32,1099.67,683,1100.37,680.84,1101.08Zm218.16-.36c-2.19-.69-4.49-1.37-6.82-2l.43-1.54c2.35.66,4.66,1.35,6.87,2Zm-204.48-3.56-.4-1.55c2.27-.58,4.61-1.13,7-1.66l.35,1.56C699.1,1096,696.77,1096.59,694.52,1097.16Zm190.78-.28c-2.25-.56-4.58-1.11-6.93-1.62l.34-1.57c2.37.52,4.71,1.07,7,1.64ZM708.41,1094l-.32-1.57c2.3-.46,4.66-.9,7-1.32l.28,1.57C713,1093.13,710.69,1093.57,708.41,1094Zm163-.22c-2.29-.45-4.65-.89-7-1.3l.28-1.57c2.37.41,4.74.85,7,1.3Zm-149-2.26-.24-1.59c2.32-.36,4.7-.71,7.08-1l.21,1.59C727.12,1090.84,724.75,1091.19,722.43,1091.55Zm134.93-.18c-2.31-.35-4.68-.69-7.05-1l.21-1.58c2.38.31,4.76.65,7.08,1Zm-120.81-1.75-.18-1.59c2.35-.28,4.74-.54,7.11-.78l.16,1.6C741.28,1089.08,738.89,1089.34,736.55,1089.62Zm106.69-.13c-2.34-.27-4.72-.53-7.09-.76l.16-1.59c2.37.23,4.76.49,7.11.76Zm-92.51-1.3-.13-1.59c2.35-.2,4.75-.38,7.13-.55l.11,1.6C755.47,1087.81,753.08,1088,750.73,1088.19Zm78.32-.09c-2.34-.19-4.73-.37-7.11-.53l.11-1.59c2.38.15,4.78.33,7.13.52Zm-64.1-.88-.08-1.59c2.35-.13,4.76-.24,7.15-.33l.06,1.6C769.69,1087,767.3,1087.1,765,1087.22Zm49.88-.06c-2.35-.11-4.75-.22-7.12-.3l0-1.6c2.38.08,4.79.19,7.15.31Zm-35.63-.47,0-1.6c2.37-.06,4.77-.09,7.15-.11l0,1.6C784,1086.6,781.56,1086.63,779.2,1086.69Zm21.38,0c-2.35,0-4.75-.08-7.13-.09V1085c2.39,0,4.8,0,7.15.09Z" transform="translate(-151.78 -196.34)"/><path class="cls-3" d="M790.08,1286.77a19.57,19.57,0,0,1-7.46-1.69l.67-1.52a18,18,0,0,0,6.82,1.55Zm7.52-1.39-.61-1.55a24.33,24.33,0,0,0,6.13-3.62l1,1.31A26.38,26.38,0,0,1,797.6,1285.38ZM776.19,1281a41.94,41.94,0,0,1-5.32-5.34l1.27-1.07a40.61,40.61,0,0,0,5.11,5.13Zm33.39-4.76-1.26-1.09a59,59,0,0,0,4.41-5.82l1.38.93A61,61,0,0,1,809.58,1276.28Zm-43.17-6.61c-1.3-2-2.58-4.14-3.81-6.44l1.46-.78c1.21,2.25,2.47,4.37,3.74,6.31Zm51.57-5.78-1.46-.8c1.12-2,2.23-4.26,3.3-6.57l1.51.7C820.25,1259.57,819.12,1261.81,818,1263.89Zm-58.69-7.35c-1-2.18-2-4.49-2.9-6.87l1.55-.6c.92,2.35,1.89,4.63,2.87,6.78Zm65-6.17-1.54-.62c.87-2.2,1.74-4.53,2.57-6.91l1.57.55C826,1245.79,825.16,1248.14,824.27,1250.37Zm-70.45-7.69c-.78-2.28-1.55-4.66-2.28-7.08l1.59-.48c.73,2.4,1.49,4.76,2.27,7Zm75.36-6.37-1.59-.49c.7-2.29,1.39-4.68,2-7.09l1.6.43C830.58,1231.59,829.88,1234,829.18,1236.31Zm-79.67-7.87c-.63-2.34-1.24-4.77-1.82-7.21l1.62-.39c.58,2.43,1.18,4.85,1.8,7.17Zm83.56-6.49-1.62-.38c.56-2.35,1.11-4.78,1.62-7.21l1.63.34C834.18,1217.15,833.63,1219.59,833.07,1222Zm-87-8c-.5-2.39-1-4.84-1.43-7.29l1.63-.3c.45,2.44.93,4.88,1.43,7.25Zm90.07-6.56-1.64-.3c.45-2.39.88-4.84,1.28-7.29l1.64.27C837,1202.55,836.59,1205,836.15,1207.41Zm-92.76-8.06c-.39-2.41-.76-4.88-1.11-7.35l1.65-.22c.34,2.45.71,4.91,1.1,7.31Zm95.16-6.61-1.65-.23c.34-2.41.67-4.87,1-7.33l1.65.2C839.22,1187.85,838.89,1190.33,838.55,1192.74Zm-97.22-8.1c-.29-2.43-.56-4.91-.81-7.39l1.65-.16c.25,2.46.52,4.94.81,7.35Zm99-6.64-1.65-.17c.25-2.43.48-4.91.69-7.37l1.65.14C840.82,1173.07,840.59,1175.56,840.34,1178Zm-100.5-8.14c-.2-2.44-.38-4.93-.54-7.41l1.66-.11c.16,2.47.34,5,.54,7.38Zm101.75-6.67-1.66-.11c.16-2.43.31-4.91.43-7.38l1.66.08C841.9,1158.26,841.75,1160.75,841.59,1163.19ZM738.88,1155c-.12-2.45-.22-5-.29-7.42l1.66-.06c.08,2.47.17,5,.29,7.4Zm103.44-6.68-1.66,0c.08-2.45.14-4.94.18-7.4l1.67,0C842.47,1143.41,842.4,1145.91,842.32,1148.36Zm-103.9-8.17c0-2.28,0-4.58,0-6.86v-.56H740v.56c0,2.27,0,4.57.05,6.84Zm104.15-6.68h-1.66v-.18c0-2.42,0-4.84-.06-7.22l1.66,0c0,2.38.06,4.82.06,7.24Zm-102.47-8.14-1.66,0c0-2.46.1-5,.18-7.42l1.66,0C740.2,1120.43,740.14,1122.92,740.1,1125.37Zm100.57-6.65c-.07-2.46-.17-4.94-.29-7.4l1.66-.08c.12,2.46.22,5,.3,7.42Zm-100.08-8.14-1.66-.08c.13-2.47.28-5,.44-7.42l1.66.12C740.86,1105.64,740.72,1108.13,740.59,1110.58Zm99.37-6.64c-.17-2.46-.35-5-.55-7.38l1.65-.14c.21,2.45.39,4.94.55,7.41Zm-98.37-8.12-1.66-.14c.21-2.47.45-5,.7-7.39l1.65.17C742,1090.88,741.8,1093.36,741.59,1095.82Zm97.14-6.63c-.25-2.45-.53-4.92-.82-7.35l1.65-.2c.29,2.44.57,4.92.82,7.39Zm-95.62-8.08-1.65-.21c.31-2.46.64-4.94,1-7.36l1.65.23C743.74,1076.18,743.41,1078.65,743.11,1081.11Zm93.84-6.6c-.34-2.46-.72-4.92-1.1-7.31l1.64-.27c.39,2.41.76,4.88,1.11,7.35Zm-91.74-8-1.64-.27c.4-2.46.84-4.92,1.29-7.31l1.63.3C746,1061.57,745.61,1064,745.21,1066.46Zm89.37-6.55c-.45-2.44-.93-4.88-1.43-7.25l1.63-.34c.5,2.38,1,4.83,1.44,7.29Zm-86.64-8-1.63-.34c.53-2.46,1.08-4.9,1.65-7.25l1.61.38C749,1047.07,748.46,1049.49,747.94,1051.93Zm83.6-6.48c-.58-2.43-1.19-4.84-1.82-7.17l1.61-.43c.63,2.34,1.24,4.77,1.82,7.21Zm-80.14-7.88-1.6-.44c.66-2.44,1.36-4.84,2.07-7.15l1.59.49C752.75,1032.76,752.06,1035.15,751.4,1037.57Zm76.29-6.39c-.73-2.4-1.49-4.76-2.27-7l1.57-.54c.79,2.28,1.56,4.66,2.29,7.08Zm-71.93-7.72-1.57-.55c.84-2.4,1.72-4.75,2.62-7l1.54.61C757.46,1018.76,756.59,1021.08,755.76,1023.46Zm67.1-6.22c-.93-2.35-1.9-4.63-2.89-6.78l1.51-.69c1,2.17,2,4.48,2.93,6.86Zm-61.59-7.45-1.51-.7c1.09-2.34,2.23-4.58,3.38-6.66l1.45.8C763.46,1005.28,762.34,1007.49,761.27,1009.79Zm55.43-5.91c-1.22-2.25-2.49-4.37-3.77-6.29l1.39-.92c1.3,2,2.59,4.13,3.84,6.42ZM768.41,997,767,996a59.11,59.11,0,0,1,4.57-5.95l1.25,1.1A57.42,57.42,0,0,0,768.41,997Zm40.15-5.24a41,41,0,0,0-5.16-5.08l1-1.29a41.69,41.69,0,0,1,5.38,5.29Zm-30.46-5.52-1-1.32a25.61,25.61,0,0,1,6.61-3.76l.58,1.55A24.32,24.32,0,0,0,778.1,986.22ZM797.31,983a17.86,17.86,0,0,0-6.84-1.41v-1.66a19.45,19.45,0,0,1,7.48,1.54Z" transform="translate(-151.78 -196.34)"/><path class="cls-3" d="M943.09,1133.88h-.65v-1.1h.65Zm-5.57,0h-4.91v-1.1h4.91Zm-9.82,0h-4.91v-1.1h4.91Zm-9.83,0H913v-1.1h4.91Zm-9.82,0h-4.92v-1.1h4.92Zm-9.83,0h-4.91v-1.1h4.91Zm-9.82,0h-4.92v-1.1h4.92Zm-9.83,0h-4.91v-1.1h4.91Zm-9.82,0h-4.92v-1.1h4.92Zm-9.83,0H854v-1.1h4.91Zm-9.83,0h-4.91v-1.1h4.91Zm-9.82,0h-4.91v-1.1h4.91Zm-9.83,0h-4.91v-1.1h4.91Zm-9.82,0h-4.91v-1.1h4.91Zm-9.83,0h-4.91v-1.1h4.91Zm-9.82,0h-4.92v-1.1H800Zm-9.83,0h-4.91v-1.1h4.91Zm-9.82,0H775.4v-1.1h4.92Zm-9.83,0h-4.91v-1.1h4.91Zm-9.82,0h-4.92v-1.1h4.92Zm-9.83,0h-4.91v-1.1h4.91Zm-9.83,0H736.1v-1.1H741Zm-9.82,0h-4.91v-1.1h4.91Zm-9.83,0h-4.91v-1.1h4.91Zm-9.82,0h-4.91v-1.1h4.91Zm-9.83,0H696.8v-1.1h4.91Zm-9.82,0H687v-1.1h4.92Zm-9.83,0h-4.91v-1.1h4.91Zm-9.82,0h-4.92v-1.1h4.92Zm-9.83,0H657.5v-1.1h4.91Zm-9.82,0h-4.92v-1.1h4.92Zm-9.83,0h-4.91v-1.1h4.91Z" transform="translate(-151.78 -196.34)"/><path class="cls-3" d="M791,1286h-1.1v-.65H791Zm0-5.57h-1.1v-4.91H791Zm0-9.82h-1.1v-4.91H791Zm0-9.83h-1.1v-4.91H791Zm0-9.82h-1.1V1246H791Zm0-9.83h-1.1v-4.91H791Zm0-9.82h-1.1v-4.92H791Zm0-9.83h-1.1v-4.91H791Zm0-9.82h-1.1v-4.92H791Zm0-9.83h-1.1v-4.91H791Zm0-9.82h-1.1V1187H791Zm0-9.83h-1.1v-4.91H791Zm0-9.83h-1.1v-4.91H791Zm0-9.82h-1.1v-4.91H791Zm0-9.83h-1.1v-4.91H791Zm0-9.82h-1.1v-4.91H791Zm0-9.83h-1.1v-4.91H791Zm0-9.82h-1.1v-4.92H791Zm0-9.83h-1.1v-4.91H791Zm0-9.82h-1.1v-4.92H791Zm0-9.83h-1.1v-4.91H791Zm0-9.82h-1.1V1079H791Zm0-9.83h-1.1v-4.91H791Zm0-9.83h-1.1v-4.91H791Zm0-9.82h-1.1v-4.91H791Zm0-9.83h-1.1v-4.91H791Zm0-9.82h-1.1v-4.92H791Zm0-9.83h-1.1V1020H791Zm0-9.82h-1.1v-4.92H791Zm0-9.83h-1.1v-4.91H791Zm0-9.82h-1.1v-4.92H791Zm0-9.83h-1.1v-4.91H791Z" transform="translate(-151.78 -196.34)"/><path class="cls-8" d="M2410.85,1013.47l-136.22-38.39,2.27-46.23,202.91-134.14,51.78,14.59-48.15,170.88,37.44,10.55-14,49.79L2469.4,1030l-17,60.14-58.55-16.5Zm14-49.79,24.47-86.84-98.55,66Z" transform="translate(-151.78 -196.34)"/><path class="cls-9" d="M1093,750.15l17.92-61.47c30,10,56,12.1,81.12,1.07,29.14-12.8,41.14-35,29.76-60.88-10.67-24.29-37.53-29.39-67.09-16.41-17.81,7.82-31.87,19.79-42.74,31.33l-46.52-8.07L1012.17,492.5l174.08-76.45,24,54.66-120.64,53,18.27,50.4c10.09-7.81,19.33-14.28,35.12-21.21,55-24.18,110.91-16.84,139.36,47.93,26.31,59.92.51,116.64-64.67,145.26C1172.35,766,1132.05,764.37,1093,750.15Z" transform="translate(-151.78 -196.34)"/><path class="cls-10" d="M2090,953.76c.07-2,1.64-23.81,34.82-25,0,0-16.32,2-19.14,9.12,0,0,11.11-8.86,20.16-6s14.36,18.7,14.42,23.91-5,22-10.72,23.45a17.35,17.35,0,0,1-7,0,77.9,77.9,0,0,1,4.46,8c13.24,27.18-.41,53.74-11.62,50.81-7.19-1.89-9.22,10.38-9.22,10.38l-69.85-56.54S2062,938.82,2090,953.76Z" transform="translate(-151.78 -196.34)"/><path class="cls-11" d="M1953.64,1276.19c20.43-2,44.68-5.61,54.34-11.56,14.71-9,40.17-46.7,55.89-74.21.45-.67,1.46-14.6,1.8-15.27,8.2-14.6,11.92-5.61,12.37-17.18a58.24,58.24,0,0,0-1.91-18.41,47.15,47.15,0,0,0-8.31-16.62,8.49,8.49,0,0,0-1.57-1.9,38.85,38.85,0,0,0-10.67-9.1c-2.69-1.12-5.61.23-8.64,3.48v.11a51.68,51.68,0,0,0-7.75,11.46c-.11.11-.22.22-.22.33-.57,1-1.13,2.14-1.8,3.37a2.89,2.89,0,0,0-.45.79c-1.23,2.58-2.47,5.27-3.7,8.08-13.81,30.09-24.21,79.84-36.45,93.42-5.27,5.84-33.72,13.12-52.92,21.66C1929.84,1260.7,1940.06,1277.65,1953.64,1276.19Z" transform="translate(-151.78 -196.34)"/><path class="cls-3" d="M2065.67,1754.47l14.84,5.52s64.43-89.37,72.37-168c1.41-14,.94-27.64-2.12-40.2,0,0,.63-3.59,1.73-10,.51-3,1.14-6.54,1.85-10.64,2.1-12,5-28.42,8.27-47.12,7.59-43,17.41-98,25-138.49l-4-1.28-43.25-14-8.94-28.39-32.2-8.47s-7.2,14.07-13.63,80.55c-1.19,8.72-2.26,18.34-3.08,28.77a570,570,0,0,0,3.07,116.45c1.48,11.56,3.34,23.49,5.66,35.74,1.69,9,1.94,21.24,1.23,35.3C2089.26,1654.57,2065.67,1754.47,2065.67,1754.47Z" transform="translate(-151.78 -196.34)"/><path class="cls-12" d="M2082.55,1402.81l69.94,139c.51-3,1.14-6.54,1.85-10.64,2.1-12,5-28.42,8.27-47.12,7.59-43,17.41-98,25-138.49l-4-1.28-43.25-14-8.94-28.39-44.05-11.59S2082.55,1376.29,2082.55,1402.81Z" transform="translate(-151.78 -196.34)"/><path class="cls-3" d="M2113.32,1311.33l1.62-13.89c27.12,7.21,99.59-20.13,99.59-20.13s26.27,23.1,22.83,78.47c-1.69,27-4.76,141.85-8,175.83-1.16,12.31-2.17,21.08-2.59,24.58a0,0,0,0,0,0,0,4.85,4.85,0,0,0,.79,3,160.05,160.05,0,0,1,11.86,24.94c31.53,84-4.86,187.49-4.86,187.49l-9.44-3.81s-20.71-115.15-37.53-166c-2.86-8.63-5.6-15.41-8.11-19.46-7.31-11.81-14.1-31.1-20.26-54-11.65-43.38-21-99.81-27.26-143.37C2131.11,1385,2113.32,1311.33,2113.32,1311.33Z" transform="translate(-151.78 -196.34)"/><path class="cls-11" d="M2061.5,1142.94c8.52,3.94,18.8,6.63,31.24,7.31,46.63,2.56,57.22-38.32,59.14-65.45a39.2,39.2,0,0,0-16-2c-1.26.07-2.54.16-3.81.27a13.74,13.74,0,0,1-12-5.25c-5.32-6.82-11.54-19-15.67-35.81l-2,.93-33.64,15.82s3.57,11,6.21,21.42a109,109,0,0,1,2.52,12.42,7.39,7.39,0,0,1-4.46,7.67h0a.1.1,0,0,1,0,0A231.43,231.43,0,0,0,2061.5,1142.94Z" transform="translate(-151.78 -196.34)"/><path class="cls-13" d="M2068.75,1058.74s3.57,10.94,6.21,21.43c19.67-5.49,25.64-26.16,27.44-37.24Z" transform="translate(-151.78 -196.34)"/><path class="cls-11" d="M2064.6,1070.33s47.06-10.89,39.82-40.09-6-50.27-36.37-44.55-33.41,18.3-33.36,28.63S2052.18,1072.41,2064.6,1070.33Z" transform="translate(-151.78 -196.34)"/><path class="cls-10" d="M2032,997.74c5.06-10.58,11-10,14.74-8.14,22.11-20.45,43.79-3.74,43.79-3.74a57.48,57.48,0,0,0,26.44,28.4s-7.23,7.4-28.18,7.24c-6.4,0-12.83-3-18.69-7a112.35,112.35,0,0,0,24.54,18.3c-26.23-5-43.82-35.38-45.62-38.6-2.22,3.28-6.47,10.26-6.83,16.16-.48,8,2.27,23.58-2.31,24.17C2039.92,1034.49,2024.46,1013.62,2032,997.74Z" transform="translate(-151.78 -196.34)"/><path class="cls-9" d="M2196.09,1223.72a42.21,42.21,0,0,1-4.41-5.93,41.54,41.54,0,0,1-6-17.4c-2.58-24.44-1.6-47.36-1.81-61.29h0c-2.57-1.9-5-3.66-7.37-5.33a65.77,65.77,0,0,1-9-7.44c-2.53-2.66-4.12-5.39-4.3-8.46a45.68,45.68,0,0,1,.18-7.1c.11-1.13.25-2.25.42-3.38a96.54,96.54,0,0,1,6.76-22.57c-12.51-5.06-41.26-1.81-41.26-1.81s-2.91,23.68-13.81,33.37c-4.41,3.92-28.68,17.64-39.72,3.64-4.49-5.7-.56-20.44-.24-21.61,0,0-18.81,5.77-29.69,16.25-7.14,6.88-11.21,19.81-12.9,24.9,0,0,8.29-.37,15,4.37-1.28,9.24-1.91,19.56,1.87,29.6.35.93.74,1.84,1.16,2.77,11.81,25.44,33.67,130.8,33.67,130.8,6.72,20.37,142.37-3.72,142.74-21C2232.54,1267.85,2209.23,1238.46,2196.09,1223.72Z" transform="translate(-151.78 -196.34)"/><path class="cls-14" d="M2123.84,1271.7c28.7-.31,53-30.1,67.84-53.91a41.54,41.54,0,0,1-6-17.4c-2.58-24.44-1.6-47.36-1.81-61.29h0c-2.57-1.9-5-3.66-7.37-5.33a65.16,65.16,0,0,1-9-7.44C2144.08,1166.05,2084.94,1272.11,2123.84,1271.7Z" transform="translate(-151.78 -196.34)"/><path class="cls-15" d="M2179.67,1779.37h74.72s1.8-11.38-2.11-20c-3.74-8.29-9.59-12.06-8.19-22.09-4.75,4.89-12.49,10.36-23.29,8.91-1.32,2.14-8.54,13.63-13,16.8C2203,1766.48,2181.18,1765.23,2179.67,1779.37Z" transform="translate(-151.78 -196.34)"/><path class="cls-15" d="M2019.24,1779.37H2094s2.8-11.91-2.11-20c-4.34-7.18-2.68-11.27.54-17.2a29.21,29.21,0,0,1-12.59,2.37c-3.72-.22-7.66-1.91-11.11-3.91-3.21,3.67-17,19.27-21.29,22.36C2042.52,1766.48,2020.75,1765.23,2019.24,1779.37Z" transform="translate(-151.78 -196.34)"/><path class="cls-3" d="M1260.83,1634.7l121.1-137c58.87,60,110.86,90.82,186.15,99.76,109.75,13,178.31-62.94,205.32-181.38-47.78,31.85-110.64,49-188.49,39.73-194-23-306.3-145.1-284.47-328.86,21.38-179.93,176.24-296.13,377.87-272.18,120,14.25,186.66,51.94,246.26,127.61,56.23,71.39,86.82,173.38,65.6,352-34.42,289.68-194.46,471.26-448.41,441.09C1411.59,1760,1328.69,1706.17,1260.83,1634.7Zm544.6-455.56c9.39-79.12-42.49-143.52-140.75-155.19-97-11.52-158.53,38.11-168.23,119.78-9.4,79.12,42.78,141,139.77,152.49S1796,1258.26,1805.43,1179.14Z" transform="translate(-151.78 -196.34)"/><path class="cls-11" d="M2009.31,1291.84l3,11.6s37.31-7.83,45.51-9.62h.11c14-3.37,29.75-7.41,43-11.9,9.32-3.26,17.4-6.74,22.9-10.22a13.85,13.85,0,0,0,1.57-1.12c13.14-9.54,28.74-37.61,40.87-67.7,1.68-4.15,3.25-8.31,4.83-12.35a306.61,306.61,0,0,0,12.79-42.66,120.82,120.82,0,0,0,3-20.32,50.75,50.75,0,0,0,.11-5.73c-.23-32.56-16.39-37-16.39-37-.34-.11-.68-.22-1.13-.33-2.8-.45-5.72,1.46-8.75,5.16-3.82,4.6-7.86,12.13-12,21.22-6.39,14.48-13.13,33.23-19.42,51.87-3.48,10.21-6.85,20.43-10.21,29.86-1.91,5.73-3.82,11.12-5.62,16.06-3.48,9.43-6.62,17.06-9.43,21.89-1.79,3.14-7,7.52-13.81,12.46C2078.37,1251.6,2009.31,1291.84,2009.31,1291.84Z" transform="translate(-151.78 -196.34)"/><path class="cls-9" d="M2145.44,1112.09c21.61-6,41.65,9.69,41.65,9.69-.27-32.5-16.45-37-16.45-37C2164.13,1082.13,2153.22,1094.63,2145.44,1112.09Z" transform="translate(-151.78 -196.34)"/><path class="cls-11" d="M2016.52,1287.63s-19,7.41-22.68,10.29-10.75,12.3-12,17.26c0,0,.06,2,2,2s6.15-7.28,9.26-6.12c0,0-4,9.64-6.29,12.08s-3.66,14.71-3.18,17.37,16.47-10,23.17-15.81c3.57-3.07,3.47-10.53,4.57-19,1-7.39,21.37-11.67,21.37-11.67Z" transform="translate(-151.78 -196.34)"/><path class="cls-16" d="M763.76,1391.34h288.82a42.27,42.27,0,0,1,42.27,42.27v23.87a43.23,43.23,0,0,1-43.23,43.23H763.76a0,0,0,0,1,0,0V1391.34a0,0,0,0,1,0,0Z"/><path class="cls-17" d="M1493.57,1632.68v16.45a50.14,50.14,0,0,1-6.07,24.11c-7.75,14.24-22.18,23.81-38.7,23.81H906.68a6.72,6.72,0,0,1-6.49-6.94v-2.47a6.72,6.72,0,0,1,6.49-6.94h330.47a44.81,44.81,0,0,0,4.64-7.46,46.92,46.92,0,0,0,4.85-20.91v-20.92a46.79,46.79,0,0,0-1.34-11.13,45,45,0,0,0-7.66-16.24h-331a6.73,6.73,0,0,1-6.49-7v-2.46a6.73,6.73,0,0,1,6.49-7h544.85c19.2,0,35.4,13.78,40.42,32.6A47.69,47.69,0,0,1,1493.57,1632.68Z" transform="translate(-151.78 -196.34)"/><path class="cls-18" d="M1492,1620.28H1245.3a45,45,0,0,0-7.66-16.24h-331a6.73,6.73,0,0,1-6.49-7v-2.46a6.73,6.73,0,0,1,6.49-7h544.85C1470.73,1587.68,1486.93,1601.46,1492,1620.28Z" transform="translate(-151.78 -196.34)"/><polygon class="cls-19" points="763.76 1446.03 803.9 1447.87 763.76 1448.97 763.76 1446.03"/><polygon class="cls-19" points="763.76 1463.19 859.26 1465.03 763.76 1466.13 763.76 1463.19"/><path class="cls-20" d="M971.45,1696.82H1254a40.82,40.82,0,0,1,40.82,40.82v5.91a38.33,38.33,0,0,1-38.33,38.33H971.45a0,0,0,0,1,0,0v-85.07A0,0,0,0,1,971.45,1696.82Z" transform="translate(2114.52 3282.38) rotate(180)"/><path class="cls-16" d="M1241.38,1696.82h322.06a39.86,39.86,0,0,1,39.86,39.86v6.23a39,39,0,0,1-39,39H1241.38a0,0,0,0,1,0,0v-85.07A0,0,0,0,1,1241.38,1696.82Z" transform="translate(2692.9 3282.38) rotate(180)"/><rect class="cls-20" x="1214.18" y="1769.17" width="405.91" height="12.72" rx="5.92" transform="translate(2682.49 3354.73) rotate(180)"/><rect class="cls-20" x="1214.18" y="1696.82" width="405.91" height="12.72" rx="5.92" transform="translate(2682.49 3210.03) rotate(180)"/><polygon class="cls-19" points="1451.52 1543.02 1407.64 1544.45 1451.52 1545.31 1451.52 1543.02"/><polygon class="cls-19" points="1451.52 1523.44 1347.13 1524.87 1451.52 1525.73 1451.52 1523.44"/><path class="cls-9" d="M1500,1720.93a19.72,19.72,0,0,1,6,9.66,16.3,16.3,0,0,1,.47,3.36c.24,8,0,26,0,26l13.2-9,13.18,9v-24.49c0-4.63-1.13-9.13-3.23-12.08-1-1.43-2.25-2.5-3.65-2.5Z" transform="translate(-151.78 -196.34)"/><path class="cls-14" d="M1500,1720.93a19.72,19.72,0,0,1,6,9.66l26.47.36s-1-8.61-6.5-10Z" transform="translate(-151.78 -196.34)"/><path class="cls-16" d="M793.82,1266.58h305a46.56,46.56,0,0,1,46.56,46.56V1344a47.62,47.62,0,0,1-47.62,47.62h-304a0,0,0,0,1,0,0v-125A0,0,0,0,1,793.82,1266.58Z"/><path class="cls-9" d="M1297.37,1511.42v26.9c-.08,11.49-5.86,21.46-14.35,26.79a26.67,26.67,0,0,1-14.16,4.11H936.35c-3.9,0-7.06,3.47-7.06,7.76v3.17c0,4.29,3.16,7.76,7.06,7.76h574.42c16.49,0,31-9,39.85-22.8a57,57,0,0,0,8.8-30.71v-21.23a54.15,54.15,0,0,0-4.53-21.85c-7.39-16.8-23-28.39-41.15-28.39H936.35c-3.9,0-7.06,3.47-7.06,7.75v3.18c0,4.28,3.16,7.76,7.06,7.76h333.53a26.48,26.48,0,0,1,20.23,9.7A31.44,31.44,0,0,1,1297.37,1511.42Z" transform="translate(-151.78 -196.34)"/><path class="cls-14" d="M929.29,1577v3.17c0,4.29,3.16,7.76,7.06,7.76h574.42c16.49,0,31-9,39.85-22.8H1283a26.67,26.67,0,0,1-14.16,4.11H936.35C932.45,1569.22,929.29,1572.69,929.29,1577Z" transform="translate(-151.78 -196.34)"/><polygon class="cls-19" points="793.82 1329.08 836.44 1331.18 793.82 1332.44 793.82 1329.08"/><polygon class="cls-19" points="793.82 1300.31 895.23 1302.41 793.82 1303.68 793.82 1300.31"/><path class="cls-9" d="M1244.36,1498.34s-6.69,4-8.91,10.48a12.64,12.64,0,0,0-.69,3.64c-.37,8.66,0,28.24,0,28.24l-19.76-9.79-19.71,9.79v-26.55c0-5,1.69-9.9,4.83-13.1a7.85,7.85,0,0,1,5.46-2.71Z" transform="translate(-151.78 -196.34)"/><path class="cls-14" d="M1244.36,1498.34s-6.69,4-8.91,10.48l-39.6.38s1.56-9.32,9.73-10.86Z" transform="translate(-151.78 -196.34)"/><path class="cls-11" d="M1653.36,1034.51a6.85,6.85,0,0,1,1.22,7.32l0,0c-1.77,4.87-7.6,10.32-14.37,15.76-.87.7-1.64,1.33-2.31,1.92-.17.16-.35.31-.51.47l-.4.36c-6.32,5.82-3.94,7.15-15.29,19-12.94,13.46-21.85,13.7-24.38,12.48-2.14-1,2.21-8.19,7-16.22l.7-1.17c.64-1.06,1.28-2.15,1.92-3.22,5.66-9.66,4.21-14.19,2.86-28.56-1.09-11.68-18.17-65.25-18.17-65.25l24.8-4.27s7.47,42.65,15.69,49.22c4.4,3.51,9.32,3.55,13.55,6.15.3.18.6.36.88.55A32.64,32.64,0,0,1,1653.36,1034.51Z" transform="translate(-151.78 -196.34)"/><path class="cls-21" d="M1653.36,1034.51a6.85,6.85,0,0,1,1.22,7.32l0,0c-2.16,4.87-7.85,10.29-14.39,15.71-.86.71-1.62,1.36-2.29,2-.17.16-.35.31-.51.47l-.4.36c-6.32,5.82-3.94,7.15-15.29,19-12.94,13.46-21.85,13.7-24.38,12.48-2.14-1,2.21-8.19,7-16.22a55,55,0,0,0,23.06-17c7.79-9.94,13-22.71,18.29-30.11.3.18.6.36.88.55A32.64,32.64,0,0,1,1653.36,1034.51Z" transform="translate(-151.78 -196.34)"/><path class="cls-11" d="M1453.43,1019c-1.53,7.65-12.44,6.38-24.63,3.4s-9.29.56-26.64-1.36-22.6-8.39-23.13-11c-.47-2.29,8.1-3.1,17.29-4.15l3.48-.42c10.38-1.3,18-8,27.41-13.5,8.93-5.21,22.26-26.44,22.26-26.44l23.79,1.88s-12.49,19-17.31,27.21c-2.84,4.85-2.69,11.26-2.34,16.21A30.84,30.84,0,0,1,1453.43,1019Z" transform="translate(-151.78 -196.34)"/><path class="cls-21" d="M1428.8,1022.43c-12.19-3-9.29.56-26.64-1.36s-22.6-8.39-23.13-11c-.47-2.29,8.1-3.1,17.29-4.15l.09.17a48.83,48.83,0,0,0,24.84,7.72c11.77.29,24.23-3.08,32.36-3a30.84,30.84,0,0,1-.18,8.14C1451.9,1026.68,1441,1025.41,1428.8,1022.43Z" transform="translate(-151.78 -196.34)"/><path class="cls-14" d="M1544.6,866.91l22.23,59.84,29,78.14a47,47,0,0,0,15.42-1.41c7-2,14.92-7.26,14.92-7.26s-8.06-83.9-23.1-132.06c-3.85-12.36-8.17-22.36-12.94-28C1566.86,808.62,1544.6,866.91,1544.6,866.91Z" transform="translate(-151.78 -196.34)"/><path class="cls-9" d="M1567.21,771.87c13-4.2,47.68.19,84.73,7a19.38,19.38,0,0,0,20.11-9l1.76-2.9,90.17-7s28.9,65.66,13.46,108c-4.33,11.88-49.56,13.31-87.66,10.24-44.7-3.6-94.9-30.82-101.38-32.11-10.59-2.12-14.83,19.07-25.43,41.33S1463.34,986,1463.34,986s-13.69.14-19.34-2c-6.08-2.28-8.3-5.24-8.3-5.24S1534.35,782.47,1567.21,771.87Z" transform="translate(-151.78 -196.34)"/><path class="cls-22" d="M1661.44,654.09c27.19,24.58,89.7,47.58,90.08,47.43,0,0,21.23,14.27,36.52,8.61,25.49-9.43,46.59-46,14.3-89.42-16.11-21.64-30-29.22-25.22-56.62,5.2-29.69-6.33-68-40.64-71.34-2.86-.28-20.16-3.52-32.79-.27C1671.49,500.77,1616.17,636.37,1661.44,654.09Z" transform="translate(-151.78 -196.34)"/><path class="cls-11" d="M1698.62,618c-.16,0,14.1,9,25.56,6.86,10.78-2,20.94-16,20.79-16.08-4.39-1.25-7.32-6.56-5.07-32.91l-2.05.23L1703.37,580s-.1,10.74-.9,20.8C1701.8,609.29,1700.63,617.25,1698.62,618Z" transform="translate(-151.78 -196.34)"/><path class="cls-23" d="M1703.37,580s-.1,10.74-.9,20.8c19,1,30.48-15.48,35.38-24.74Z" transform="translate(-151.78 -196.34)"/><path class="cls-11" d="M1696.25,589s44.86,4.42,47.19-23.55,9.68-46.26-18.87-50.26-35,6.2-38,15.35S1684.64,587.17,1696.25,589Z" transform="translate(-151.78 -196.34)"/><path class="cls-22" d="M1701.06,510.81s5.65,34.18,31.19,42.29c18.64,5.92,27.08,2,27.08,2a76,76,0,0,1-12.16-28.44,13.66,13.66,0,0,0-9.12-10.44C1724.81,511.88,1708.76,500,1701.06,510.81Z" transform="translate(-151.78 -196.34)"/><path class="cls-22" d="M1709.51,518.1s-8.45,1.88-16,12.79c-4.09,6-8.83,21-8,27.65,0,0-7.85-31.64,3.59-43.41C1701.27,502.65,1709.51,518.1,1709.51,518.1Z" transform="translate(-151.78 -196.34)"/><path class="cls-3" d="M1779.4,709.91c-.8,3.4-1.48,6.52-2,9.41-.92,4.65-1.54,8.66-2,12.2-1.37,11-.95,17.57-1.88,24.72a61.45,61.45,0,0,1-3.36,13.47c-1.85,5.12-50.6,9.69-78.34,7.85-8.8-.57-15.1-2.42-17.9-3.87-8.39-4.36-10.82,1.16-10.26-80.13.3-44.11,37.43-83.39,37.43-83.39s3,18.84,40.81-3.58c1.34-.79,16.22,21.24,30.53,48.36C1788.18,684.91,1783.85,691.25,1779.4,709.91Z" transform="translate(-151.78 -196.34)"/><path class="cls-9" d="M1566.83,926.75l29,78.14a47,47,0,0,0,15.42-1.41c7-2,14.92-7.26,14.92-7.26s-8.06-83.9-23.1-132.06Z" transform="translate(-151.78 -196.34)"/><path class="cls-3" d="M1701.06,610.16s-31.91,2.73-42.57,33.49c-5.68,16.39-36.66,99.78-36.66,99.78s24.84,3.4,34-5.73,31.06-79.37,31.06-79.37Z" transform="translate(-151.78 -196.34)"/><path class="cls-11" d="M1542.63,722.29l-9.21-3.65s-5.54-1.22-8.53-.28-10.47.84-10.51,2.07,8.53,5,8.53,5l.27-.1c-3.25,7.37-19.53,11.58-20.31,14.28-.95,3.28,6.62,5,10.74,6s14.23.93,19.22-4.33c3.64-3.84,9.8-9.12,9.8-9.12Z" transform="translate(-151.78 -196.34)"/><path class="cls-24" d="M1706.6,572.54s-1.88,4.6-6.84,4.6-6.31-.74-7.25-1.79a16,16,0,0,1-1.88-3.08A42.12,42.12,0,0,1,1706.6,572.54Z" transform="translate(-151.78 -196.34)"/><path class="cls-3" d="M1632.37,711.46l-68.56-16s-14.11,5.65-8,16c0,0,62.06,38.88,85.41,34.69,26.56-4.76,44.54-54.56,44.54-54.56Z" transform="translate(-151.78 -196.34)"/><path class="cls-12" d="M1775.37,731.52c-1.37,11-.95,17.57-1.88,24.72C1738.2,756.36,1691,729,1691,729Z" transform="translate(-151.78 -196.34)"/><path class="cls-12" d="M1691,705.85s55-1.64,64.24-32.88c10.18-34.33,21.58,14.11,21.58,14.11L1770.78,718h-60.31Z" transform="translate(-151.78 -196.34)"/><path class="cls-20" d="M1506.57,754.36l-94.78,24.14-18.41-72.27,94.79-24.13-24-94.27,74.36-18.94,24,94.27L1657.31,639l18.4,72.26-94.78,24.14,24,94.27-74.36,18.93Z" transform="translate(-151.78 -196.34)"/><path class="cls-11" d="M1691,713.09l-6.25-7.68s-4.23-3.77-7.3-4.41-9.55-4.38-10.18-3.33,5,8.57,5,8.57l.28,0c-6.44,4.84-22.69.57-24.7,2.54-2.43,2.4,3.35,7.57,6.45,10.48s12,7.75,18.88,5.6c5.06-1.57,13-3.17,13-3.17Z" transform="translate(-151.78 -196.34)"/><path class="cls-3" d="M1742,606.57s35.57,2.36,44.49,16.28,20,84.58,15.35,108.84-118.92-4.64-118.92-4.64l3.65-21s66,.38,69.7-8.21C1761.26,686.37,1742,606.57,1742,606.57Z" transform="translate(-151.78 -196.34)"/><path class="cls-11" d="M772,1294.65s19.9,7.93,26.61,5.81,18.28-8.59,20.36-13.91-13.65,1.39-19,0-11.11-3-21.53,0S772,1294.65,772,1294.65Z" transform="translate(-151.78 -196.34)"/><path class="cls-25" d="M591.06,1752.3s1.5,24.21,6,29.9h69.17c-.44-2.41-2.4-8.37-11.05-9.88-10.93-1.9-29.22-9.58-35.83-24C612.38,1733.1,591.06,1752.3,591.06,1752.3Z" transform="translate(-151.78 -196.34)"/><path class="cls-25" d="M468.32,1748.93s-4.56,30.13,1.36,30.68c.79.07,28.49,0,36,1.15,12.3,1.84,32.82.23,32.82.23a3.25,3.25,0,0,0,3-4.89c-1.44-2.43-4.18-5-9.4-6-10.89-2.09-29-10.09-35.41-24.65C490,1730.1,468.32,1748.93,468.32,1748.93Z" transform="translate(-151.78 -196.34)"/><path class="cls-12" d="M623.59,1430.16s-17.4,60.86-67.24,166.54-53.7,153.84-53.7,153.84l-34.33-1.61s3.23-125.79,26.77-179.12,28.34-199.27,28.34-199.27Z" transform="translate(-151.78 -196.34)"/><path class="cls-3" d="M651.51,1377.8s1.38,94.24-14.92,209.94-10.78,164.82-10.78,164.82l-39,1.3s-23.34-115.75-16.65-173.66-32-198.73-32-198.73Z" transform="translate(-151.78 -196.34)"/><path class="cls-11" d="M574.45,1157.28l18.42,13.64,26.62-5.6c-.37-2.43-2.13-12.49-3.73-21.61-.09-.53-.19-1.07-.28-1.59-1.37-7.76-2.55-14.42-2.55-14.42l-24.86-12.39-9.27-4.62c0,.16.71,8.6.81,9.84C581.35,1142.41,574.45,1157.28,574.45,1157.28Z" transform="translate(-151.78 -196.34)"/><path class="cls-9" d="M655.09,1380.91c1.68,16.82-132.88,36.71-133.4,8.51-.44-24.81,14.33-161.35,18.91-180.89,8.1-34.57,15.37-54.32,30.79-58.86,5.69-1.65,26.67,3.79,41.83,8.19a27,27,0,0,1,3.13,1.09,32.15,32.15,0,0,1,18.84,20.63c2.33,7.87,5,18,7.2,29.08a220.72,220.72,0,0,1,4.09,31.57q.18,3.36.21,6.69c.08,8.25.8,18.91,1.81,30.76.64,7.47,1.41,15.41,2.2,23.51.23,2.31.47,4.65.69,7,.17,1.63,2.75,55,3.5,69.26,0,.21,0,.39,0,.57a.17.17,0,0,0,0,.07c0,.19,0,.4,0,.6C655,1380,655.07,1380.73,655.09,1380.91Z" transform="translate(-151.78 -196.34)"/><path class="cls-26" d="M581.48,1120.91c5.46,10.45,25.8,19.48,34.28,22.8-.09-.53-.19-1.07-.28-1.59-1.37-7.76-2.55-14.42-2.55-14.42l-24.86-12.39C582.57,1115.22,579.22,1116.61,581.48,1120.91Z" transform="translate(-151.78 -196.34)"/><path class="cls-11" d="M625,1126.25s-44.85,14-53.14-14.08-19.65-45.16,8.64-55.28,37-1.06,42.08,7.63S636.46,1121.88,625,1126.25Z" transform="translate(-151.78 -196.34)"/><path class="cls-27" d="M620.83,1061.82s-2.86,32.66-9.62,31.24-12.88-2.47-11.89,7.38,10.36,21.21-10.46,23-50.74-51.94-45-62.1C560.34,1032,644.67,1026,620.83,1061.82Z" transform="translate(-151.78 -196.34)"/><path class="cls-14" d="M617.63,1150.39c-.59-.24-36.21-10.75-40.08-9.48s-6.16,8.77-6.16,8.77l55,15.67S625.07,1153.53,617.63,1150.39Z" transform="translate(-151.78 -196.34)"/><path class="cls-11" d="M778.43,1286.55s6.37-5.38,11.92-6.59,10.42-6.25,10.42-3.82-4.17,8.33-4.17,10.41S778.43,1286.55,778.43,1286.55Z" transform="translate(-151.78 -196.34)"/><path class="cls-14" d="M648.5,1277.68c-28.57-10.85-50.23-53-50.23-53l48.21,15.54q.18,3.36.21,6.69C646.77,1255.17,647.49,1265.83,648.5,1277.68Z" transform="translate(-151.78 -196.34)"/><path class="cls-9" d="M779.32,1291.15l.06-.23a10.59,10.59,0,0,0-5.66-12.19c-18-8.64-64.46-31.07-69.65-33.85-5.48-2.94-59.92-55.28-76.2-71a10.61,10.61,0,0,0-10.64-2.44l-45.11,14.75a10.59,10.59,0,0,0-2.7,18.8c33.18,22.74,102.58,70,115.06,76.43,22,11.24,66.5,17.12,82.93,19a10.57,10.57,0,0,0,10.92-6.35A24,24,0,0,0,779.32,1291.15Z" transform="translate(-151.78 -196.34)"/><path class="cls-5" d="M690.57,1752.24a25,25,0,0,0,.2,3.26,26.5,26.5,0,0,0,3.05,9.55,26.81,26.81,0,0,0,23.53,14H1094a26.79,26.79,0,0,0,0-53.57H717.35A26.78,26.78,0,0,0,690.57,1752.24Z" transform="translate(-151.78 -196.34)"/><path class="cls-5" d="M719.3,1720.6H848.45a4.12,4.12,0,0,0,4.11-4.11h0a4.12,4.12,0,0,0-4.11-4.11H719.3a4.12,4.12,0,0,0-4.11,4.11h0A4.12,4.12,0,0,0,719.3,1720.6Z" transform="translate(-151.78 -196.34)"/><rect class="cls-28" x="726.43" y="1720.6" width="14" height="4.85" transform="translate(1315.08 3249.71) rotate(180)"/><path class="cls-28" d="M693.82,1765.05a26.81,26.81,0,0,0,23.53,14h79.79v-14Z" transform="translate(-151.78 -196.34)"/><path class="cls-9" d="M1170.69,1744.39v15.69a18.92,18.92,0,0,1-18.93,18.94H759.37a18.94,18.94,0,0,1-18.28-14,19.35,19.35,0,0,1-.66-5v-15.69a18.94,18.94,0,0,1,18.94-18.94h392.39A18.93,18.93,0,0,1,1170.69,1744.39Z" transform="translate(-151.78 -196.34)"/><path class="cls-29" d="M1170,1765.05a18.92,18.92,0,0,1-18.27,14H759.37a18.94,18.94,0,0,1-18.28-14Z" transform="translate(-151.78 -196.34)"/><path class="cls-3" d="M1131.72,1752.33c0,8.32,3,15.76,7.79,20.68l.32.33a19,19,0,0,0,13.44,5.87c8,0,27.64-12,39.84-19.94,6.08-4,10.3-6.94,10.3-6.94s-4.22-3-10.3-6.93c-12.2-8-31.89-20-39.84-20a17.89,17.89,0,0,0-6.59,1.27,21.67,21.67,0,0,0-9.08,7.17,29.47,29.47,0,0,0-5.46,13.11,1.11,1.11,0,0,0,0,.17A33.39,33.39,0,0,0,1131.72,1752.33Z" transform="translate(-151.78 -196.34)"/><path class="cls-1" d="M1137.6,1733.89l60.25,16.45-51.17-23.62A21.67,21.67,0,0,0,1137.6,1733.89Z" transform="translate(-151.78 -196.34)"/><path class="cls-9" d="M1189.18,1752.33c0,3.2,1.64,5.93,3.93,6.94,6.08-4,10.3-6.94,10.3-6.94s-4.22-3-10.3-6.93C1190.82,1746.4,1189.18,1749.13,1189.18,1752.33Z" transform="translate(-151.78 -196.34)"/><rect class="cls-30" x="97.31" y="1582.4" width="2518.39" height="6.92" rx="2.9"/></svg>